<svg width="64" height="64" viewBox="0 0 64 64" fill="none" xmlns="http://www.w3.org/2000/svg">
<path d="M61.8125 19.8594H51.7979L57.7778 13.2022C58.1099 12.8321 58.2783 12.3555 58.252 11.8594C58.2251 11.3628 58.0068 10.9068 57.6372 10.5748L55.0654 8.26519C54.3022 7.57965 53.1235 7.64263 52.4385 8.40582L42.1499 19.8594H24.2437C23.7261 19.8594 23.3062 20.2789 23.3062 20.7969C23.3062 21.315 23.7261 21.7344 24.2437 21.7344H40.4658L36.2832 26.3907C35.9512 26.7603 35.7832 27.2374 35.8096 27.7335C35.813 27.792 35.8188 27.8497 35.8271 27.9073L34.3896 31.7945C34.1763 32.3716 34.334 33.0103 34.792 33.4214C35.0728 33.6739 35.4272 33.8047 35.7861 33.8047C36.0117 33.8047 36.2393 33.753 36.4521 33.6475L40.1665 31.8008C40.1899 31.8018 40.2129 31.8043 40.2368 31.8043C40.2705 31.8043 40.3042 31.8033 40.3384 31.8013C40.8345 31.7745 41.2905 31.5567 41.623 31.1866L50.1138 21.7344H61.8125C61.9849 21.7344 62.125 21.8746 62.125 22.0469V58.167C62.125 58.3394 61.9849 58.4795 61.8125 58.4795H54.9922C54.4746 58.4795 54.0547 58.899 54.0547 59.417C54.0547 59.9346 54.4746 60.3545 54.9922 60.3545H61.8125C63.0186 60.3545 64 59.3731 64 58.167V22.0469C64 20.8404 63.0186 19.8594 61.8125 19.8594ZM56.3735 11.96L55.2598 13.1993L52.71 10.9092L53.8237 9.66949L56.3735 11.96ZM51.457 12.3043L52.0347 12.8228L38.2656 28.1514L37.688 27.6324L51.457 12.3043ZM37.1685 29.6861L38.2515 30.6592L36.4839 31.5377L37.1685 29.6861ZM40.2378 29.9229L39.6602 29.4044L53.4297 14.0757L54.0068 14.5943L40.2378 29.9229Z" fill="#161C2E"/>
<path d="M50.9097 58.4795H8.74316C4.95605 58.4795 1.875 55.3984 1.875 51.6113V51.1157C1.875 47.3286 4.95557 44.248 8.74268 44.248H10.6694C11.876 44.248 12.8569 43.2666 12.8569 42.0605V21.7344H20.1611C20.6792 21.7344 21.0986 21.3145 21.0986 20.7969C21.0986 20.2788 20.6792 19.8594 20.1611 19.8594H12.8569V16.604C12.8569 16.0864 12.4375 15.6665 11.9194 15.6665C11.4019 15.6665 10.9819 16.0864 10.9819 16.604V42.0605C10.9819 42.2329 10.8418 42.373 10.6694 42.373H8.74268C5.96045 42.373 3.47705 43.6797 1.875 45.7114V12.4932C1.875 8.70605 4.95605 5.625 8.74316 5.625H10.6694C10.8418 5.625 10.9819 5.76514 10.9819 5.9375V12.5215C10.9819 13.0396 11.4019 13.459 11.9194 13.459C12.4375 13.459 12.8569 13.0396 12.8569 12.5215V5.9375C12.8569 4.73145 11.876 3.75 10.6694 3.75H8.74316C3.92236 3.75 0 7.67188 0 12.4932V51.6113C0 56.4321 3.92236 60.3545 8.74316 60.3545H50.9097C51.4277 60.3545 51.8472 59.9346 51.8472 59.417C51.8472 58.8989 51.4277 58.4795 50.9097 58.4795Z" fill="#161C2E"/>
<path d="M50.0244 29.7568C46.1948 29.7568 43.0547 32.7588 42.8301 36.5327H38.5142C37.9966 36.5327 37.5767 36.9526 37.5767 37.4702V48.1792C37.5767 48.6973 37.9966 49.1167 38.5142 49.1167H49.2231C49.7412 49.1167 50.1606 48.6973 50.1606 48.1792V44.1714C54.0732 44.0981 57.2334 40.895 57.2334 36.9658C57.2334 32.9907 53.9995 29.7568 50.0244 29.7568V29.7568ZM48.2861 42.0073C46.644 41.4395 45.3638 40.0913 44.8906 38.4077H48.2861V42.0073ZM39.4517 47.2417V38.4077H42.9609C43.5156 41.1284 45.6074 43.2954 48.2861 43.9614V47.2417H39.4517ZM50.1611 42.2964V37.4702C50.1611 36.9526 49.7412 36.5327 49.2236 36.5327H44.71C44.9312 33.7935 47.2295 31.6318 50.0249 31.6318C52.9658 31.6318 55.3589 34.0244 55.3589 36.9658C55.3584 39.8613 53.0391 42.2236 50.1611 42.2964Z" fill="#EF6C35"/>
<path d="M53.5073 44.8223C52.9893 44.8223 52.5698 45.2417 52.5698 45.7598C52.5698 46.2773 52.9893 46.6973 53.5073 46.6973H55.5928C56.1108 46.6973 56.5303 46.2773 56.5303 45.7598C56.5303 45.2417 56.1108 44.8223 55.5928 44.8223H53.5073Z" fill="#EF6C35"/>
<path d="M56.5303 48.1792C56.5303 47.6616 56.1108 47.2417 55.5928 47.2417H53.5073C52.9893 47.2417 52.5698 47.6616 52.5698 48.1792C52.5698 48.6973 52.9893 49.1167 53.5073 49.1167H55.5928C56.1108 49.1167 56.5303 48.6973 56.5303 48.1792V48.1792Z" fill="#EF6C35"/>
<path d="M17.125 29.3833H18.625C19.1426 29.3833 19.5625 28.9639 19.5625 28.4458C19.5625 27.9282 19.1426 27.5083 18.625 27.5083H17.125C16.6074 27.5083 16.1875 27.9282 16.1875 28.4458C16.1875 28.9639 16.6074 29.3833 17.125 29.3833Z" fill="#EF6C35"/>
<path d="M17.125 32.1147H24.3618C24.8799 32.1147 25.2993 31.6948 25.2993 31.1772C25.2993 30.6592 24.8799 30.2397 24.3618 30.2397H17.125C16.6074 30.2397 16.1875 30.6592 16.1875 31.1772C16.1875 31.6948 16.6074 32.1147 17.125 32.1147Z" fill="#EF6C35"/>
<path d="M22.8618 29.3833H24.3618C24.8799 29.3833 25.2993 28.9639 25.2993 28.4458C25.2993 27.9282 24.8799 27.5083 24.3618 27.5083H22.8618C22.3442 27.5083 21.9243 27.9282 21.9243 28.4458C21.9243 28.9639 22.3442 29.3833 22.8618 29.3833Z" fill="#EF6C35"/>
<path d="M30.0986 27.5083H28.5986C28.0811 27.5083 27.6611 27.9282 27.6611 28.4458C27.6611 28.9639 28.0811 29.3833 28.5986 29.3833H30.0986C30.6167 29.3833 31.0361 28.9639 31.0361 28.4458C31.0361 27.9282 30.6167 27.5083 30.0986 27.5083Z" fill="#EF6C35"/>
<path d="M17.125 34.8257H24.3618C24.8799 34.8257 25.2993 34.4058 25.2993 33.8882C25.2993 33.3701 24.8799 32.9507 24.3618 32.9507H17.125C16.6074 32.9507 16.1875 33.3701 16.1875 33.8882C16.1875 34.4058 16.6074 34.8257 17.125 34.8257Z" fill="#EF6C35"/>
<path d="M16.1875 36.5986C16.1875 37.1167 16.6074 37.5361 17.125 37.5361H28.5986C29.1167 37.5361 29.5361 37.1167 29.5361 36.5986C29.5361 36.0811 29.1167 35.6611 28.5986 35.6611H17.125C16.6074 35.6611 16.1875 36.0811 16.1875 36.5986Z" fill="#EF6C35"/>
<path d="M31.0361 39.3096C31.0361 38.792 30.6167 38.3721 30.0986 38.3721H17.125C16.6074 38.3721 16.1875 38.792 16.1875 39.3096C16.1875 39.8276 16.6074 40.2471 17.125 40.2471H30.0986C30.6167 40.2471 31.0361 39.8276 31.0361 39.3096Z" fill="#EF6C35"/>
<path d="M20.646 43.6772C20.646 43.1592 20.2261 42.7397 19.7085 42.7397H17.125C16.6074 42.7397 16.1875 43.1592 16.1875 43.6772V46.2603C16.1875 46.7783 16.6074 47.1978 17.125 47.1978H19.7085C20.2261 47.1978 20.646 46.7783 20.646 46.2603V43.6772ZM18.771 45.3232H18.0625V44.6147H18.771V45.3232Z" fill="#EF6C35"/>
<path d="M26.8442 43.6772C26.8442 43.1592 26.4243 42.7397 25.9067 42.7397H23.3232C22.8057 42.7397 22.3857 43.1592 22.3857 43.6772V46.2603C22.3857 46.7783 22.8057 47.1978 23.3232 47.1978H25.9067C26.4243 47.1978 26.8442 46.7783 26.8442 46.2603V43.6772ZM24.9692 45.3232H24.2607V44.6147H24.9692V45.3232Z" fill="#EF6C35"/>
<path d="M33.043 43.6772C33.043 43.1592 32.623 42.7397 32.1055 42.7397H29.522C29.0039 42.7397 28.5845 43.1592 28.5845 43.6772V46.2603C28.5845 46.7783 29.0039 47.1978 29.522 47.1978H32.1055C32.623 47.1978 33.043 46.7783 33.043 46.2603V43.6772ZM31.168 45.3232H30.4595V44.6147H31.168V45.3232Z" fill="#EF6C35"/>
<path d="M19.7085 49.3232H17.125C16.6074 49.3232 16.1875 49.7427 16.1875 50.2607V52.8438C16.1875 53.3618 16.6074 53.7812 17.125 53.7812H19.7085C20.2261 53.7812 20.646 53.3618 20.646 52.8438V50.2607C20.646 49.7427 20.2261 49.3232 19.7085 49.3232ZM18.771 51.9062H18.0625V51.1978H18.771V51.9062Z" fill="#EF6C35"/>
<path d="M25.9067 49.3232H23.3232C22.8057 49.3232 22.3857 49.7427 22.3857 50.2607V52.8438C22.3857 53.3618 22.8057 53.7812 23.3232 53.7812H25.9067C26.4243 53.7812 26.8442 53.3618 26.8442 52.8438V50.2607C26.8442 49.7427 26.4243 49.3232 25.9067 49.3232ZM24.9692 51.9062H24.2607V51.1978H24.9692V51.9062Z" fill="#EF6C35"/>
<path d="M29.522 53.7812H32.1055C32.623 53.7812 33.043 53.3618 33.043 52.8438V50.2603C33.043 49.7427 32.623 49.3228 32.1055 49.3228H29.522C29.0039 49.3228 28.5845 49.7427 28.5845 50.2603V52.8438C28.5845 53.3618 29.0039 53.7812 29.522 53.7812ZM30.4595 51.1982H31.168V51.9062H30.4595V51.1982Z" fill="#EF6C35"/>
</svg>
