<svg width="525" height="397" viewBox="0 0 525 397" fill="none" xmlns="http://www.w3.org/2000/svg">
<g clip-path="url(#clip0_118_493)">
<path opacity="0.4" d="M5.66675 187.72C13.9731 220.114 31.5596 248.116 59.3536 261.688C117.138 289.899 247.378 275.348 344.595 258.65C394.894 250.01 439.075 226.186 471.188 192.615L5.66675 187.72Z" fill="#EF6C35"/>
<path opacity="0.4" d="M515.48 35.2433H462.139C459.601 35.2433 457.525 33.35 457.525 31.0365C457.525 28.7229 459.596 26.8296 462.139 26.8296H471.368C468.83 26.8296 466.754 24.9363 466.754 22.6228C466.754 20.3092 468.826 18.4205 471.368 18.4205H464.783C462.245 18.4205 460.169 16.5272 460.169 14.2137C460.169 11.9001 462.241 10.0068 464.783 10.0068H492.624C486.445 7.3839 479.241 5.52291 470.907 4.54855C394.991 -4.35002 367.885 1.5331 358.309 7.58709C346.407 15.2108 333.167 20.5056 319.293 23.1908C272.454 32.0062 184.858 42.6134 105.463 19.792C66.0034 8.45524 36.6773 27.6423 19.0955 59.6486H524.742C524.082 50.339 522.107 41.7406 518.479 34.2181C517.623 34.8874 516.566 35.2485 515.48 35.2433V35.2433Z" fill="#EF6C35"/>
<path opacity="0.4" d="M1.13982 120.105C-0.906861 138.946 -0.20892 157.983 3.2118 176.623L471.544 192.25C484.448 178.759 495.4 163.526 504.082 146.995L1.13982 120.105ZM186.358 160.424H177.129C179.662 160.424 181.744 162.317 181.744 164.63C181.744 166.944 179.667 168.833 177.129 168.833H123.811C121.278 168.833 119.197 166.944 119.197 164.63C119.197 162.317 121.273 160.424 123.811 160.424H133.04C130.507 160.424 128.426 158.53 128.426 156.217C128.426 153.903 130.502 152.01 133.04 152.01H126.446C123.913 152.01 121.831 150.121 121.831 147.808C121.831 145.494 123.908 143.601 126.446 143.601H179.787C182.325 143.601 184.402 145.494 184.402 147.808C184.402 150.121 182.33 152.01 179.787 152.01H186.358C188.896 152.01 190.973 153.903 190.973 156.217C190.973 158.53 188.91 160.424 186.358 160.424Z" fill="#EF6C35"/>
<path opacity="0.4" d="M524.764 59.9395L13.4609 71.2855C7.23111 85.8733 3.11022 102.364 1.20898 119.459H515.803C519.153 109.456 521.639 99.1834 523.232 88.7548C524.764 78.7064 525.378 68.9905 524.764 59.9395ZM105.025 97.1177H95.7955C98.329 97.1177 100.41 99.011 100.41 101.325C100.41 103.638 98.3336 105.531 95.7955 105.531H42.4594C39.9259 105.531 37.8447 103.638 37.8447 101.325C37.8447 99.011 39.9213 97.1177 42.4594 97.1177H51.6887C49.1552 97.1177 47.074 95.229 47.074 92.9155C47.074 90.6019 49.1506 88.7086 51.6887 88.7086H45.0943C42.5609 88.7086 40.4797 86.8153 40.4797 84.5018C40.4797 82.1882 42.5563 80.2949 45.0943 80.2949H98.4351C100.973 80.2949 103.05 82.1882 103.05 84.5018C103.05 86.8153 100.978 88.7086 98.4351 88.7086H105.025C107.558 88.7086 109.639 90.6019 109.639 92.9155C109.639 95.229 107.558 97.1177 105.025 97.1177Z" fill="#EF6C35"/>
<path opacity="0.9" d="M306.57 354.11C325.743 354.11 341.286 350.618 341.286 346.31C341.286 342.002 325.743 338.51 306.57 338.51C287.397 338.51 271.854 342.002 271.854 346.31C271.854 350.618 287.397 354.11 306.57 354.11Z" fill="#EF6C35"/>
<path opacity="0.9" d="M231.263 332.036C257.29 332.036 278.388 328.544 278.388 324.237C278.388 319.929 257.29 316.437 231.263 316.437C205.237 316.437 184.139 319.929 184.139 324.237C184.139 328.544 205.237 332.036 231.263 332.036Z" fill="#EF6C35"/>
<path d="M266.478 138.687C265.481 131.973 259.385 116.305 259.385 116.305C259.279 115.843 259.159 115.381 259.025 114.919C254.701 100.05 248.716 98.7571 248.716 98.7571L227.276 94.1392C227.456 94.2516 227.613 94.3974 227.738 94.5687C227.625 94.5792 227.512 94.5961 227.401 94.6195C226.419 93.4598 225.77 92.0554 225.523 90.5558C225.481 90.3341 225.444 90.094 225.417 89.8677C226.957 88.3658 228.158 86.5517 228.939 84.5471C229.721 82.5425 230.065 80.3938 229.949 78.2452C229.833 76.0966 229.259 73.9976 228.265 72.0892C227.272 70.1808 225.882 68.5071 224.189 67.1803C223.963 67.0048 223.728 66.834 223.502 66.6723C224.512 65.5964 224.545 64.1002 223.788 62.604C222.099 59.0945 218.425 56.8733 214.651 55.7881C211.767 54.9615 208.652 54.6937 205.781 55.5988C204.152 56.116 202.666 56.9841 201.139 57.7553C198.292 59.1776 195.14 60.3043 193.013 62.6456C192.514 63.1905 192.053 63.8878 192.2 64.6082C192.311 65.1438 192.736 65.5594 193.008 66.0351C193.622 67.1018 193.469 68.4456 193.049 69.6093C192.63 70.773 192.016 71.8535 191.725 73.045C191.434 74.2364 191.545 75.6402 192.44 76.4945C192.87 76.826 193.316 77.1343 193.779 77.418C194.268 77.8358 194.699 78.3191 195.057 78.8542C195.906 79.9932 196.752 81.1369 197.595 82.2852C198.785 83.8072 199.848 85.4242 200.774 87.1201C201.407 88.3669 201.896 89.6969 202.74 90.8144C202.988 91.1406 203.271 91.438 203.585 91.701L203.336 91.604C203.703 91.9777 204.142 92.2725 204.627 92.4702C205.112 92.6679 205.632 92.7645 206.155 92.7539C206.201 92.7539 206.243 92.7539 206.284 92.7539C206.477 92.7498 206.661 92.6741 206.801 92.5415C206.801 92.6985 206.801 92.8555 206.801 93.0032C206.852 94.6518 206.843 96.4066 206.727 98.0551L206.529 97.9536C206.235 97.8071 205.905 97.7476 205.578 97.782C205.251 97.8163 204.941 97.9431 204.683 98.1475L184.946 113.996C184.946 113.996 180.655 119.87 181.254 130.011L177.793 145.217C177.793 145.217 173.47 158.119 176.797 167.332C180.124 176.545 182.053 181.813 182.053 181.813C182.053 181.813 183.382 192.282 185.38 193.136C187.378 193.991 188.241 194.452 188.241 194.452L188.638 196.955C188.638 196.955 188.772 197.2 189.007 197.611C190.461 200.142 195.846 209.073 198.975 208.117C199.369 210.542 199.538 212.998 199.482 215.454L202.579 236.258C202.579 236.258 204.738 241.915 204.605 244.879C204.471 247.844 207.124 252.069 207.124 252.069C205.512 255.022 205.039 258.465 205.795 261.744C207.06 267.285 208.656 292.812 208.656 292.812L210.964 299L210.899 306.255C210.71 307.438 210.217 308.552 209.468 309.487C207.973 311.113 208.084 312.992 204.48 315.214C200.876 317.435 198.592 318.275 198.592 321.217C198.587 321.627 198.55 322.036 198.481 322.44C198.149 324.602 197.503 325.774 204.129 326.403C211.914 327.141 217.106 322.062 217.106 322.062C217.106 322.062 218.25 319.984 223.64 319.143C223.64 319.143 225.486 319.046 225.583 317.416C225.62 316.853 225.61 315.777 225.583 314.59C225.495 312.332 225.278 309.695 224.992 309.566C224.632 309.404 224.005 307.132 223.788 306.31H225.287C225.287 306.31 226.672 295.842 225.287 289.063C223.903 282.284 225.154 277.477 225.154 277.477L224.886 259.573C224.886 259.573 223.04 257.597 224.489 254.106C225.938 250.615 224.489 233.372 224.489 233.372C224.489 233.372 225.024 227.184 226.552 225.734C228.079 224.284 226.626 216.669 226.552 216.272L229.275 225.41C229.275 225.41 230.47 243.577 233.003 246.865L233.732 255.094C233.732 255.094 238.919 262.667 237.922 266.745C236.926 270.822 238.988 285.572 238.988 285.572V300.649C238.988 300.649 236.658 306.703 239.911 308.878L241.296 308.822C240.834 309.252 240.479 309.898 239.939 310.457C239.316 311.099 238.961 313.542 238.762 315.643C238.596 317.421 238.541 318.949 238.541 318.949C238.541 318.949 239.925 321.166 242.532 321.318C245.14 321.471 253.732 328.01 253.732 328.01C253.732 328.01 262.219 328.01 264.415 327.548L264.544 327.515C265.249 327.294 265.842 326.809 266.201 326.162C266.641 325.412 266.783 324.523 266.598 323.673C266.326 322.376 265.297 320.953 263.017 319.744C257.345 316.751 256.501 313.948 256.501 313.948L252.777 308.356H253.308C253.308 308.356 252.98 302.431 257.032 295.782L256.769 266.491C256.769 266.491 258.43 256.419 255.573 250.952C255.573 250.952 255.338 245.161 257.249 243.383C259.159 241.605 254.706 223.637 254.706 223.637C254.706 223.637 253.783 213.991 252.699 205.189C257.189 209.451 261.845 194.106 262.629 191.377H262.745L262.694 191.178C262.726 191.049 262.745 190.984 262.745 190.984C262.745 190.984 261.748 187.438 262.477 188.158C263.206 188.879 265.006 186.182 265.006 186.182C265.006 186.182 264.738 171.502 267.867 164.104C270.996 156.706 266.478 138.687 266.478 138.687ZM253.095 148.029L253.118 147.988C253.58 156.951 253.031 176.078 253.031 176.078C253.031 176.078 252.412 178.53 251.753 181.416L251.291 163.245L250.83 146.127L253.095 148.029ZM195.823 141.851C195.823 141.851 198.084 170.153 195.823 174.236C195.181 175.399 194.642 177.468 194.194 179.828C193.446 177.865 191.864 173.257 192.431 170.814C193.165 167.655 190.968 159.357 190.968 159.163C190.968 158.969 190.77 154.545 192.353 151.165C193.935 147.785 192.897 146.321 192.897 146.321C192.897 146.321 194.226 140.779 195.823 141.851Z" fill="url(#paint0_linear_118_493)"/>
<path d="M201.333 205.595C199.362 214.263 191.527 201.158 189.741 198.013C189.51 197.602 189.381 197.362 189.381 197.362L190.23 193.376L194.72 191.529C195.431 191.901 196.105 192.34 196.732 192.841C199.192 194.776 202.851 198.881 201.333 205.595Z" fill="#D38884"/>
<path d="M262.122 191.414C262.122 191.414 262.122 191.479 262.071 191.608C262.071 191.663 262.034 191.737 262.011 191.816C261.24 194.522 256.672 209.756 252.26 205.526C247.433 200.908 249.777 190.232 249.777 190.232H249.81L259.962 189.193L261.974 191.262L262.122 191.414Z" fill="#D38884"/>
<path d="M256.247 266.385L256.506 295.477C252.523 302.08 252.851 307.945 252.851 307.945L239.727 308.462C236.524 306.306 238.804 300.298 238.804 300.298V285.318C238.804 285.318 236.778 270.684 237.756 266.629C238.735 262.575 233.645 255.085 233.645 255.085L232.925 246.916C230.442 243.651 229.265 225.618 229.265 225.618L226.603 216.512C226.676 216.904 228.061 224.505 226.603 225.905C225.144 227.304 224.577 233.482 224.577 233.482C224.577 233.482 226.012 250.605 224.577 254.064C223.142 257.523 224.964 259.49 224.964 259.49L225.227 277.264C225.227 277.264 223.986 282.034 225.357 288.763C226.727 295.491 225.357 305.886 225.357 305.886H211.277L211.342 298.631L209.062 292.489C209.062 292.489 207.493 267.137 206.252 261.647C205.509 258.393 205.971 254.98 207.553 252.042C207.553 252.042 204.946 247.862 205.075 244.921C205.204 241.979 203.063 236.369 203.063 236.369L200.027 215.722C200.11 211.749 199.603 207.785 198.522 203.961C196.76 198.078 194.148 190.366 194.148 190.366L197.096 190.629L211.974 191.954C211.974 191.954 248.148 189.521 249.768 191.543C250.11 192.205 250.341 192.917 250.451 193.654C252.075 200.954 254.221 223.827 254.221 223.827C254.221 223.827 258.596 241.665 256.718 243.429C254.84 245.193 255.07 250.938 255.07 250.938C257.885 256.364 256.247 266.385 256.247 266.385Z" fill="#444053"/>
<path d="M225.666 316.917C225.564 318.538 223.76 318.635 223.76 318.635C218.472 319.467 217.346 321.526 217.346 321.526C217.346 321.526 212.27 326.573 204.614 325.839C198.107 325.211 198.739 324.052 199.076 321.905C199.142 321.505 199.177 321.1 199.182 320.695C199.182 317.753 201.434 316.917 204.96 314.692C208.486 312.466 208.389 310.623 209.856 309.007C211.324 307.391 211.476 304.255 211.476 304.255C213.137 301.36 217.35 304.717 217.35 304.717C217.549 305.742 223.811 305.599 223.811 305.599C223.811 305.599 224.641 308.933 225.071 309.127C225.352 309.256 225.564 311.87 225.647 314.114C225.694 315.292 225.703 316.359 225.666 316.917Z" fill="#B07473"/>
<path opacity="0.1" d="M225.666 316.917C225.564 318.538 223.76 318.635 223.76 318.635C218.472 319.467 217.346 321.526 217.346 321.526C217.346 321.526 212.27 326.573 204.614 325.839C198.107 325.211 198.739 324.052 199.076 321.905C201.983 322.625 207.539 323.632 210.784 321.868C215.292 319.42 218.527 317.712 218.527 317.712L225.652 314.124C225.694 315.292 225.703 316.359 225.666 316.917Z" fill="black"/>
<path d="M265.523 325.641C265.175 326.282 264.593 326.764 263.898 326.984L263.774 327.017C261.619 327.478 253.289 327.478 253.289 327.478C253.289 327.478 244.867 320.963 242.32 320.815C239.773 320.667 238.402 318.46 238.402 318.46C238.402 318.46 238.453 316.945 238.614 315.181C238.813 313.094 239.159 310.67 239.773 310.032C240.899 308.855 241.157 307.262 243.691 308.268C243.691 308.268 247.308 301.886 251.572 306.818L255.984 313.514C255.984 313.514 256.815 316.285 262.403 319.291C264.637 320.492 265.633 321.905 265.915 323.193C266.092 324.029 265.953 324.902 265.523 325.641Z" fill="#B07473"/>
<path opacity="0.1" d="M265.523 325.641C265.024 326.061 264.475 326.513 263.898 326.984L263.774 327.017C261.619 327.478 253.289 327.478 253.289 327.478C253.289 327.478 244.867 320.963 242.32 320.815C239.773 320.667 238.402 318.46 238.402 318.46C238.402 318.46 238.453 316.945 238.614 315.181C241.208 315.957 245.135 317.328 246.187 318.806C247.802 321.055 252.708 324.195 252.708 324.195C252.708 324.195 261.854 323.313 265.915 323.193C266.092 324.029 265.953 324.902 265.523 325.641Z" fill="black"/>
<path d="M229.93 97.6165L217.886 110.357C217.886 110.357 203.289 109.281 205.837 104.968C207.133 102.77 207.336 98.1707 207.221 94.1716C207.115 90.3157 206.718 87.0325 206.718 87.0325C206.718 87.0325 227.189 76.8363 225.638 86.3444C225.304 88.136 225.285 89.9723 225.583 91.7703C226.455 96.5729 229.93 97.6165 229.93 97.6165Z" fill="#D38884"/>
<path opacity="0.1" d="M225.62 86.3444C225.286 88.136 225.267 89.9723 225.564 91.7704C224.164 93.1902 222.496 94.317 220.656 95.0853C218.816 95.8535 216.842 96.2477 214.849 96.245C212.08 96.245 209.085 93.9684 206.847 92.6524C206.741 88.7918 206.718 87.0325 206.718 87.0325C206.718 87.0325 227.189 76.8363 225.62 86.3444Z" fill="black"/>
<path d="M229.93 80.3642C229.931 83.7845 228.771 87.1038 226.641 89.7784C224.511 92.453 221.536 94.3245 218.204 95.0862C214.872 95.8479 211.38 95.4547 208.301 93.971C205.221 92.4873 202.736 90.0011 201.253 86.9196C199.77 83.8381 199.377 80.344 200.138 77.0095C200.898 73.675 202.768 70.698 205.441 68.5659C208.113 66.4338 211.43 65.2731 214.848 65.2739C218.266 65.2747 221.582 66.4369 224.254 68.5703C226.024 69.9837 227.453 71.7779 228.436 73.8195C229.418 75.8612 229.929 78.0981 229.93 80.3642V80.3642Z" fill="#D38884"/>
<path opacity="0.1" d="M250.451 193.654C246.695 202.598 222.533 202.783 222.533 202.783V193.03L221.07 192.933C221.702 195.727 220.184 202.538 220.184 202.538C201.088 205.235 196.432 194.346 196.432 194.346L197.097 190.62L211.974 191.945C211.974 191.945 248.148 189.511 249.768 191.534C250.111 192.198 250.342 192.914 250.451 193.654V193.654Z" fill="black"/>
<path d="M222.533 201.605V191.853L221.07 191.76C221.702 194.531 220.184 201.365 220.184 201.365C205.814 203.393 199.621 197.731 197.438 194.803C197.046 194.299 196.708 193.754 196.432 193.178L202.265 160.345L203.649 112.024L205.74 103.546L206.224 99.4775V99.4313H206.275L207.761 100.069L216.653 103.915L226.755 96.2819L226.903 96.1757L227.406 95.7924L228.241 96.462L230.317 98.129L236.976 141.163C236.976 141.163 248.513 174.296 250.673 187.669C250.76 188.205 250.83 188.703 250.885 189.17C252.311 201.379 222.533 201.605 222.533 201.605Z" fill="#EF6C35"/>
<path d="M217.733 105.725C218.207 105.725 218.592 105.341 218.592 104.866C218.592 104.392 218.207 104.008 217.733 104.008C217.259 104.008 216.875 104.392 216.875 104.866C216.875 105.341 217.259 105.725 217.733 105.725Z" fill="#67647E"/>
<path d="M218.13 113.566C218.604 113.566 218.988 113.182 218.988 112.708C218.988 112.233 218.604 111.849 218.13 111.849C217.656 111.849 217.272 112.233 217.272 112.708C217.272 113.182 217.656 113.566 218.13 113.566Z" fill="#67647E"/>
<path d="M218.988 126.261C219.462 126.261 219.847 125.876 219.847 125.402C219.847 124.928 219.462 124.543 218.988 124.543C218.514 124.543 218.13 124.928 218.13 125.402C218.13 125.876 218.514 126.261 218.988 126.261Z" fill="#67647E"/>
<path d="M220.405 139.934C220.879 139.934 221.263 139.55 221.263 139.075C221.263 138.601 220.879 138.216 220.405 138.216C219.931 138.216 219.547 138.601 219.547 139.075C219.547 139.55 219.931 139.934 220.405 139.934Z" fill="#67647E"/>
<path d="M221.263 152.772C221.737 152.772 222.122 152.387 222.122 151.913C222.122 151.439 221.737 151.054 221.263 151.054C220.789 151.054 220.405 151.439 220.405 151.913C220.405 152.387 220.789 152.772 221.263 152.772Z" fill="#67647E"/>
<path d="M222.122 166.445C222.596 166.445 222.98 166.061 222.98 165.586C222.98 165.112 222.596 164.727 222.122 164.727C221.648 164.727 221.263 165.112 221.263 165.586C221.263 166.061 221.648 166.445 222.122 166.445Z" fill="#67647E"/>
<path d="M221.78 179.971C222.254 179.971 222.639 179.586 222.639 179.112C222.639 178.638 222.254 178.253 221.78 178.253C221.306 178.253 220.922 178.638 220.922 179.112C220.922 179.586 221.306 179.971 221.78 179.971Z" fill="#67647E"/>
<path opacity="0.1" d="M206.796 165.12C206.796 165.12 205.837 177.694 204.074 181.352C202.311 185.009 201.527 195.27 201.527 195.27L197.433 194.808C197.041 194.304 196.704 193.759 196.427 193.183L202.26 160.35L203.645 112.029L205.74 103.546L206.224 99.4774L206.28 99.4543C206.508 99.3462 206.759 99.2921 207.011 99.2961C207.264 99.3001 207.513 99.3621 207.738 99.4774L207.932 99.579C207.873 99.7452 207.818 99.9161 207.766 100.092C206.169 105.093 205.574 114.31 205.574 114.31C205.574 114.31 207.881 131.17 208.121 139.011C208.361 146.852 206.796 165.12 206.796 165.12Z" fill="black"/>
<path opacity="0.1" d="M196.732 192.855C196.687 192.96 196.635 193.062 196.575 193.159C194.988 195.842 190.964 197.546 189.741 198.013C189.51 197.602 189.381 197.362 189.381 197.362L190.23 193.376L194.72 191.529C195.432 191.905 196.105 192.349 196.732 192.855V192.855Z" fill="black"/>
<path d="M185.855 128.685L182.131 130.906L178.739 146.002C178.739 146.002 174.494 158.807 177.756 167.955C181.019 177.103 182.916 182.34 182.916 182.34C182.916 182.34 184.222 192.73 186.183 193.58C188.144 194.429 188.988 194.887 188.988 194.887L189.381 197.371C189.381 197.371 194.697 195.565 196.575 192.384C198.453 189.202 195.191 181.301 195.191 181.301C195.191 181.301 192.385 174.568 193.105 171.433C193.825 168.297 191.665 160.063 191.665 159.888C191.665 159.712 191.471 155.312 193.049 151.945C194.628 148.579 193.575 147.143 193.575 147.143L192.593 137.538L185.855 128.685Z" fill="#67647E"/>
<path opacity="0.1" d="M250.76 190.828C250.76 190.828 240.899 194.55 237.765 191.289C234.632 188.029 234.955 172.73 234.955 172.73C234.955 172.73 231.956 144.501 230.059 139.865C228.162 135.229 229.136 101.768 229.136 101.768C229.136 101.768 227.862 97.441 226.75 96.3096C226.68 96.2369 226.601 96.1733 226.515 96.1203L226.898 96.2034L228.236 96.4897L230.313 98.1568L236.972 141.19C236.972 141.19 248.508 174.323 250.668 187.697L250.76 190.828Z" fill="black"/>
<path opacity="0.1" d="M262.122 191.806H262.011C260.77 191.968 249.814 193.293 249.768 191.012C249.766 190.748 249.78 190.485 249.81 190.223L259.962 189.184L261.974 191.252C262.011 191.386 262.039 191.502 262.066 191.594L262.122 191.806Z" fill="black"/>
<path d="M251.609 113.566L258.808 117.325C258.808 117.325 264.807 132.869 265.767 139.533C265.767 139.533 270.211 157.385 267.151 164.727C264.092 172.07 264.346 186.644 264.346 186.644C264.346 186.644 262.583 189.322 261.863 188.606C261.143 187.891 262.126 191.414 262.126 191.414C262.126 191.414 249.819 193.049 249.768 190.629C249.717 188.209 252.592 176.646 252.592 176.646C252.592 176.646 253.377 149.138 252.265 144.825C251.153 140.512 251.609 113.566 251.609 113.566Z" fill="#67647E"/>
<path opacity="0.1" d="M230.128 142.867C230.128 142.867 226.076 152.795 224.771 153.451C223.465 154.106 225.034 156.716 225.034 156.716C225.034 156.716 232.412 146.395 230.128 142.867Z" fill="black"/>
<path opacity="0.1" d="M227.71 108.039C227.756 107.85 222.879 112.828 221.573 113.58C220.267 114.333 226.34 113.534 227.71 108.039Z" fill="black"/>
<path opacity="0.1" d="M214.129 142.082C214.129 142.082 206.686 146.898 207.669 148.805C208.652 150.712 214.129 142.082 214.129 142.082Z" fill="black"/>
<path opacity="0.1" d="M227.646 212.388C227.646 212.388 233.981 216.466 243.838 217.468L227.646 212.388Z" fill="black"/>
<path opacity="0.1" d="M212.431 222.192C212.431 222.192 218.305 229.58 220.987 229.77C223.668 229.959 212.431 222.192 212.431 222.192Z" fill="black"/>
<path opacity="0.1" d="M220.659 251.146C220.396 251.275 217.327 257.809 214.198 258.008C211.07 258.206 220.659 251.146 220.659 251.146Z" fill="black"/>
<path opacity="0.1" d="M247.885 265.461C247.885 265.461 253.709 264.154 255.006 268.333C255.006 268.319 254.614 267.013 247.885 265.461Z" fill="black"/>
<path opacity="0.1" d="M243.968 289.363C243.968 289.363 251.023 287.922 252.523 289.885C254.023 291.847 243.968 289.363 243.968 289.363Z" fill="black"/>
<path opacity="0.1" d="M224.009 292.706C224.009 292.771 216.829 294.147 217.087 295.061C217.346 295.976 224.747 295.846 225.011 294.406C225.058 294.228 225.069 294.043 225.044 293.861C225.019 293.679 224.958 293.504 224.865 293.346C224.772 293.188 224.648 293.05 224.501 292.94C224.354 292.83 224.187 292.751 224.009 292.706Z" fill="black"/>
<path opacity="0.1" d="M241.619 298.903C241.619 298.903 253.418 297.463 252.694 299.947C251.969 302.431 241.619 298.903 241.619 298.903Z" fill="black"/>
<path opacity="0.1" d="M179.847 153.451C179.912 153.645 187.618 154.693 188.661 157.177C188.661 157.177 181.088 153.645 179.893 153.645" fill="black"/>
<path opacity="0.1" d="M190.687 173.64C190.687 173.64 184.286 175.667 184.743 178.72C185.2 181.772 184.092 177.306 190.687 173.64Z" fill="black"/>
<path opacity="0.1" d="M187.706 189.193C187.706 189.193 190.036 185.993 192.256 186.579C194.475 187.165 187.706 189.193 187.706 189.193Z" fill="black"/>
<path opacity="0.1" d="M224.254 68.5703C224.03 68.7879 223.778 68.9757 223.506 69.129C221.66 70.205 221.153 71.8628 220.276 73.7746C219.459 75.5247 218.559 77.3765 216.912 78.3693C214.785 79.6531 211.983 79.1821 209.773 80.2996C208.792 80.8108 207.986 81.6044 207.46 82.5781C206.933 83.5517 206.71 84.6609 206.82 85.7625C206.96 86.6125 207.17 87.4496 207.447 88.2654C207.95 90.0316 208.177 91.8649 208.121 93.7006C208.126 93.7543 208.126 93.8084 208.121 93.8622C206.23 92.9166 204.558 91.5838 203.215 89.95C201.872 88.3163 200.887 86.4182 200.325 84.379C199.762 82.3397 199.634 80.2048 199.949 78.1129C200.264 76.021 201.015 74.0187 202.154 72.2361C203.292 70.4534 204.792 68.9302 206.557 67.7652C208.322 66.6003 210.311 65.8197 212.397 65.474C214.483 65.1283 216.618 65.2253 218.664 65.7588C220.709 66.2922 222.62 67.2501 224.272 68.5703H224.254Z" fill="black"/>
<path d="M223.861 64.0263C222.205 60.5444 218.601 58.3371 214.895 57.2612C212.066 56.4438 208.993 56.176 206.187 57.0764C204.586 57.5844 203.132 58.4618 201.633 59.2145C198.836 60.6276 195.763 61.7451 193.659 64.0679C193.165 64.6081 192.736 65.3008 192.86 66.0166C192.966 66.5476 193.382 66.9401 193.649 67.4296C194.254 68.4917 194.111 69.8263 193.691 70.9808C193.271 72.1352 192.676 73.2066 192.389 74.3933C192.103 75.5801 192.214 76.9701 193.091 77.8152C193.483 78.1892 193.986 78.4247 194.411 78.7387C194.89 79.1535 195.311 79.632 195.661 80.161L198.153 83.569C199.324 85.0792 200.367 86.684 201.273 88.3669C201.891 89.6045 202.371 90.9252 203.202 92.0289C204.032 93.1325 205.324 94.0191 206.7 93.8991C206.806 93.9018 206.912 93.8794 207.008 93.8336C207.104 93.7879 207.188 93.7202 207.253 93.6359C207.304 93.5278 207.328 93.4089 207.322 93.2895C207.383 91.4607 207.161 89.6335 206.663 87.8728C206.385 87.0572 206.175 86.2201 206.035 85.3699C205.929 84.2687 206.153 83.1608 206.679 82.1878C207.205 81.2147 208.009 80.4207 208.988 79.907C211.203 78.7895 214.005 79.2605 216.127 77.9814C217.779 76.9839 218.679 75.1322 219.491 73.3636C220.382 71.4518 220.876 69.794 222.722 68.718C224.567 67.6421 224.78 65.8596 223.861 64.0263Z" fill="#585268"/>
<path opacity="0.1" d="M217.106 310.744C217.106 310.744 219.413 313.685 218.813 315.361C218.213 317.038 217.106 310.744 217.106 310.744Z" fill="black"/>
<path opacity="0.1" d="M248.324 318.104C248.324 318.104 248.836 314.161 250.889 314.124C252.943 314.087 253.044 313.911 254.613 314.516C256.182 315.121 257.655 316.059 257.184 316.197C256.713 316.336 254.484 313.944 252.195 315.167C250.767 315.95 249.462 316.939 248.324 318.104V318.104Z" fill="black"/>
<path opacity="0.1" d="M210.221 108.861L216.681 104.331C216.681 104.331 207.23 98.7432 206.104 99.5282C204.978 100.313 204.203 107.379 204.203 107.379L210.221 108.861Z" fill="black"/>
<path d="M210.193 108.57L216.653 103.952C216.653 103.952 207.203 98.3645 206.077 99.1496C204.951 99.9346 204.175 107.388 204.175 107.388L210.193 108.57Z" fill="#E1E7EF"/>
<path d="M210.193 108.57L216.653 103.952C216.653 103.952 207.203 98.3645 206.077 99.1496C204.951 99.9346 204.175 107.388 204.175 107.388L210.193 108.57Z" fill="#EF6C35"/>
<path d="M207.147 99.1865L206.953 99.0895C206.665 98.9424 206.34 98.882 206.019 98.9156C205.697 98.9492 205.392 99.0754 205.14 99.2788L185.758 115.012C185.758 115.012 181.545 120.844 182.131 130.906L193.562 147.11C193.562 147.11 194.868 141.624 196.432 142.668C196.432 142.668 198.652 170.768 196.432 174.817C194.212 178.867 193.234 194.028 193.234 194.028L200.742 194.877C200.742 194.877 201.527 184.616 203.289 180.959C205.052 177.302 206.012 164.727 206.012 164.727C206.012 164.727 207.599 146.459 207.336 138.618C207.073 130.777 204.789 113.917 204.789 113.917C204.789 113.917 205.431 104.035 207.147 99.1865Z" fill="#67647E"/>
<path opacity="0.1" d="M226.455 105.998L218.402 103.015C218.402 103.015 228.656 91.7749 229.939 98.009L226.455 105.998Z" fill="black"/>
<path d="M226.455 105.605L218.402 102.622C218.402 102.622 228.656 91.3823 229.939 97.6164L226.455 105.605Z" fill="#E1E7EF"/>
<path d="M226.455 105.605L218.402 102.622C218.402 102.622 228.656 91.3823 229.939 97.6164L226.455 105.605Z" fill="#EF6C35"/>
<path opacity="0.1" d="M226.192 96.0418C226.308 96.0232 226.427 96.0496 226.524 96.1157L226.192 96.0418Z" fill="black"/>
<path d="M226.967 95.2613L248.333 99.8792C248.333 99.8792 254.212 101.186 258.458 115.954C262.703 130.722 252.643 148.814 252.643 148.814L250.423 146.926L251.536 190.052C251.536 190.052 241.674 193.774 238.541 190.513C235.407 187.253 235.735 171.94 235.735 171.94C235.735 171.94 232.731 143.716 230.834 139.075C228.938 134.434 229.911 100.983 229.911 100.983C229.911 100.983 228.167 95.0027 226.967 95.2613Z" fill="#67647E"/>
<path opacity="0.1" d="M246.515 122.742C246.215 123.019 245.864 136.069 247.17 146.002C247.968 152.051 249.202 158.034 250.862 163.905L248.924 124.114C248.924 124.114 247.428 121.892 246.515 122.742Z" fill="black"/>
<path opacity="0.1" d="M243.903 111.502C244.424 111.83 246.713 117.252 245.666 119.473C244.618 121.694 243.903 111.502 243.903 111.502Z" fill="black"/>
<path opacity="0.1" d="M223.737 64.0263C222.688 61.9594 221.054 60.2473 219.039 59.1037C220.537 60.1773 221.747 61.605 222.56 63.2598C223.483 65.1069 223.211 66.954 221.416 67.9653C219.621 68.9766 219.062 70.6991 218.186 72.6109C217.369 74.361 216.469 76.2128 214.817 77.2287C212.694 78.5125 209.893 78.0368 207.678 79.1543C206.699 79.6697 205.896 80.4648 205.37 81.4384C204.844 82.412 204.619 83.5201 204.725 84.6219C204.867 85.4705 205.078 86.3061 205.357 87.1201C205.859 88.8864 206.086 90.7197 206.03 92.5553C206.035 92.6751 206.009 92.794 205.957 92.9017C205.893 92.9864 205.81 93.0546 205.714 93.1004C205.619 93.1462 205.513 93.1683 205.408 93.1649C204.854 93.2073 204.298 93.1038 203.797 92.8647C204.16 93.2251 204.593 93.5073 205.069 93.6939C205.545 93.8805 206.055 93.9677 206.566 93.9499C206.649 93.962 206.734 93.9547 206.814 93.9285C206.894 93.9023 206.966 93.8579 207.026 93.7989C207.086 93.7398 207.132 93.6677 207.159 93.5881C207.186 93.5086 207.195 93.4238 207.184 93.3403C207.244 91.5049 207.018 89.6712 206.515 87.9051C206.234 87.0904 206.022 86.253 205.883 85.4023C205.777 84.3011 206.001 83.1932 206.527 82.2201C207.053 81.2471 207.857 80.453 208.836 79.9394C211.051 78.8219 213.852 79.2929 215.975 78.0137C217.627 77.0163 218.527 75.1645 219.339 73.3959C220.23 71.4841 220.724 69.8263 222.569 68.7504C224.415 67.6744 224.66 65.8596 223.737 64.0263Z" fill="black"/>
<path d="M355.194 122.017C348.836 121.892 343.224 117.399 340.045 111.909C339.211 110.602 338.687 109.122 338.513 107.582C338.535 107.232 338.593 106.885 338.688 106.547C338.882 106.032 339.036 105.502 339.149 104.963C339.175 104.749 339.175 104.532 339.149 104.317C339.149 104.317 339.149 104.317 339.149 104.28C339.302 103.112 338.614 101.971 337.765 101.172C336.916 100.373 335.85 99.7868 334.964 98.9926C332.232 96.5913 331.401 92.74 331.351 89.0735V88.8795C331.383 87.3094 331.507 85.7348 331.494 84.1647C331.515 83.2734 331.477 82.3817 331.378 81.4956C331.115 79.2744 330.271 77.0117 328.526 75.594C323.976 71.8997 316.325 75.7464 311.614 72.2553C310.469 71.401 309.542 70.1403 308.153 69.8078C307.105 69.5539 306.016 69.8956 304.992 70.2373C301.521 71.3825 297.65 72.8879 296.293 76.2405C295.518 78.1661 295.735 80.3642 295.024 82.3129C294.563 83.6198 293.681 84.7419 293.04 85.9795C292.513 86.9112 292.257 87.9717 292.301 89.0411C292.244 89.5948 292.322 90.154 292.528 90.6712C292.769 91.2946 293.156 91.8506 293.658 92.2921C293.477 92.6777 293.251 93.0404 292.984 93.3727C292.098 94.4579 290.737 95.2198 289.814 96.3004C288.107 98.2814 288.171 100.974 289.011 103.301C289.851 105.628 291.369 107.748 292.417 110.015C292.878 110.999 293.229 112.098 292.763 113.077C292.435 113.756 291.757 114.273 291.231 114.859C290.461 115.723 289.977 116.804 289.846 117.953C279.459 120.327 279.45 128.681 279.45 128.681L273.838 142.802C273.838 142.802 272.938 145.18 271.882 148.32L265.241 147.129L269.856 154.859C268.984 158.009 268.365 160.927 268.568 162.395C268.568 162.395 266.506 172.093 270.174 173.788L278.268 177.431C278.619 177.646 278.996 177.816 279.39 177.934L279.717 178.082C279.835 178.139 279.965 178.169 280.096 178.169C280.227 178.169 280.356 178.139 280.474 178.082H280.497H280.585C280.742 178.093 280.899 178.069 281.046 178.013C281.227 177.916 281.369 177.762 281.452 177.574C281.45 177.559 281.45 177.543 281.452 177.528L283.875 176.826L285.929 179.26C286.852 179.911 287.774 180.474 288.647 180.982L285.467 212.578C285.467 212.578 284.955 254.6 283.404 264.177C282.832 267.724 282.828 270.143 283.044 271.787L282.984 271.889C283.367 274.59 284.369 275.121 284.369 275.121V275.085C284.387 275.099 284.407 275.112 284.429 275.121C284.896 273.895 285.451 272.703 286.09 271.557C286.09 271.783 286.09 272.018 286.09 272.249C286.058 275.814 285.947 280.806 285.578 284.052C284.95 289.594 287.184 307.857 287.184 307.857L287.954 324.482C288.08 327.304 287.425 330.107 286.062 332.581C284.217 335.901 281.858 340.575 281.688 342.648C281.679 342.76 281.679 342.873 281.688 342.985V342.985L277.728 347.751C277.728 347.751 276.182 350.143 279.676 351.108C281.554 351.63 284.793 351.108 287.396 350.494C288.532 350.232 289.546 349.593 290.273 348.68C290.999 347.768 291.395 346.636 291.397 345.47C292.055 343.18 293.166 341.046 294.664 339.194L295.315 343.022L299.671 344.103L300.229 333.611C300.454 333.022 300.556 332.394 300.529 331.764V331.764C301.388 324.301 298.508 324.971 298.508 324.971C298.585 325.037 298.635 325.129 298.647 325.23L298.508 324.976C296.741 321.485 297.585 315.74 297.585 315.74C297.585 315.74 299.893 299.116 300.682 294.724C301.249 291.621 301.014 281.462 300.825 275.791C300.825 275.556 300.825 275.329 300.802 275.103C307.557 275.015 315.836 274.789 321.646 274.226V274.909L320.575 314.184C320.502 316.688 319.993 319.16 319.071 321.489C319.071 321.535 319.039 321.577 319.02 321.623C317.747 324.913 317.028 328.391 316.893 331.916L316.394 344.384V344.731C315.527 345.063 314.156 346.028 314.119 348.827C314.059 352.927 321.281 351.561 321.281 351.561C328.499 351.561 328.559 344.043 328.559 344.043C328.559 344.043 328.785 337.148 329.131 332.535C329.477 327.922 328.042 328.938 328.042 328.938L327.931 342.062C327.931 342.094 327.931 342.126 327.931 342.163V330.66L328.042 328.993V328.947V328.591L328.951 315.057C328.951 315.057 335.601 292.503 336.63 288.176C337.363 285.101 337.059 275.837 336.819 270.716C336.819 270.481 336.819 270.254 336.782 270.037C338.845 269.853 340.668 269.834 341.397 269.834H341.734C341.734 269.834 341.392 233.612 340.529 219.961C339.666 206.311 338.296 193.82 334.858 190.061C332.781 187.789 329.888 180.774 327.936 175.579C332.039 177.355 336.298 178.746 340.658 179.735C351.544 182.017 350.054 172.559 350.054 172.559L348.951 154.674H349.025C348.984 149.99 348.583 145.315 347.825 140.692C347.248 137.145 346.367 133.479 345.019 130.532C346.201 130.071 347.368 129.577 348.512 129.069C351.47 127.762 354.802 125.91 355.227 122.719H355.084C355.141 122.489 355.178 122.254 355.194 122.017V122.017ZM287.714 147.877C287.738 149.724 287.668 152.929 287.558 156.471L284.101 151.853L287.567 146.228L287.714 147.877ZM335.467 164.243L329.708 162.395C330.729 160.801 331.922 159.324 333.266 157.99L333.764 157.528L333.584 157.565L333.861 157.311L334.027 157.274L333.764 157.528L334.078 157.464C334.424 158.911 335.095 160.261 336.039 161.412C338.106 163.67 335.471 164.243 335.471 164.243H335.467Z" fill="url(#paint1_linear_118_493)"/>
<path d="M300.483 330.48L299.81 343.262L295.513 342.186L294.609 336.871L300.483 330.48Z" fill="#A27772"/>
<path opacity="0.1" d="M300.483 330.48L299.81 343.262L295.513 342.186L294.609 336.871L300.483 330.48Z" fill="black"/>
<path d="M316.251 344.957L322.804 346.315L327.664 342.02V329.917L327.774 328.264V328.213V327.862L328.679 314.41C328.679 314.41 335.236 292.018 336.256 287.719C336.976 284.671 336.676 275.472 336.436 270.388C336.339 268.306 336.256 266.911 336.256 266.911L321.789 263.406L321.484 274.535L320.428 313.528C320.355 316.013 319.854 318.468 318.946 320.783L318.896 320.917C317.638 324.182 316.928 327.634 316.796 331.131L316.307 343.53V343.872L316.251 344.957Z" fill="#CC818C"/>
<path opacity="0.1" d="M316.251 344.957L322.804 346.315L327.664 342.02V340.99C327.648 341.218 327.576 341.439 327.454 341.632C327.333 341.825 327.165 341.986 326.967 342.099L326.897 342.14C324.64 343.334 322.083 343.84 319.542 343.595L316.985 343.378C316.752 343.4 316.524 343.456 316.307 343.544V343.886L316.251 344.957Z" fill="black"/>
<path d="M326.897 342.477L326.967 342.44C327.18 342.32 327.358 342.146 327.482 341.935C327.606 341.724 327.672 341.484 327.673 341.24L327.779 328.213C327.779 328.213 329.191 327.201 328.85 331.782C328.508 336.363 328.287 343.207 328.287 343.207C328.287 343.207 328.231 350.669 321.111 350.669C321.111 350.669 313.99 352.027 314.046 347.954C314.101 343.881 316.985 343.715 316.985 343.715L319.542 343.936C322.084 344.182 324.642 343.675 326.897 342.477Z" fill="#B07473"/>
<path d="M282.122 342.186C282.288 345.128 290.935 343.429 290.935 343.429L296.755 332.124C296.755 332.124 301.614 328.388 299.182 325.11C299.052 324.931 298.933 324.744 298.826 324.551C298.826 324.551 298.826 324.551 298.803 324.523C298.753 324.44 298.707 324.352 298.66 324.26C296.916 320.796 297.774 315.117 297.774 315.117C297.774 315.117 300.031 298.603 300.825 294.249C301.383 291.173 301.152 281.083 300.968 275.44C300.894 273.094 300.825 271.52 300.825 271.52L286.468 267.673C286.468 267.673 286.468 269.465 286.468 271.958C286.436 275.5 286.325 280.455 285.961 283.678C285.343 289.16 287.544 307.312 287.544 307.312L288.305 323.83C288.437 326.629 287.799 329.41 286.459 331.87C284.66 335.167 282.306 339.813 282.145 341.868C282.128 341.973 282.121 342.08 282.122 342.186V342.186Z" fill="#CC818C"/>
<path opacity="0.1" d="M282.122 342.186C282.288 345.128 290.936 343.428 290.936 343.428L296.755 332.124C296.755 332.124 301.614 328.388 299.182 325.109C299.052 324.931 298.933 324.744 298.827 324.551C298.748 326.264 296.87 330.554 296.87 330.554C296.87 330.554 292.066 340.173 290.539 342.376C289.011 344.578 282.375 341.965 282.126 341.872C282.117 341.977 282.115 342.082 282.122 342.186V342.186Z" fill="black"/>
<path d="M298.66 324.246C298.66 324.246 301.503 323.586 300.654 330.993C300.686 331.834 300.495 332.669 300.101 333.413C299.706 334.157 299.121 334.783 298.407 335.227C296.372 336.506 293.234 339.259 291.646 344.611C291.647 345.766 291.258 346.887 290.542 347.792C289.826 348.698 288.824 349.334 287.701 349.598C285.135 350.198 281.937 350.725 280.086 350.207C276.639 349.247 278.167 346.873 278.167 346.873L282.122 342.177C282.122 342.177 289.016 344.892 290.539 342.685C292.061 340.478 296.87 330.868 296.87 330.868C296.87 330.868 299.505 324.869 298.66 324.246Z" fill="#B07473"/>
<path opacity="0.1" d="M321.789 264.778L321.484 275.906C325.338 275.532 328.097 275.011 328.568 274.276C329.588 272.697 333.289 272.032 336.436 271.76C336.339 269.677 336.256 268.282 336.256 268.282L321.789 264.778Z" fill="black"/>
<path opacity="0.1" d="M286.469 273.311C286.837 272.557 287.379 271.902 288.051 271.399C289.574 270.554 289.408 276.83 289.408 276.83C289.408 276.83 294.484 276.876 300.968 276.793C300.894 274.447 300.825 272.868 300.825 272.868L286.469 269.026C286.469 269.026 286.496 270.808 286.469 273.311Z" fill="black"/>
<path d="M284.83 274.798C284.83 274.798 286.529 270.18 288.061 269.358C289.593 268.536 289.417 274.784 289.417 274.784C289.417 274.784 326.713 275.126 328.577 272.24C330.441 269.354 341.291 269.525 341.291 269.525C341.291 269.525 340.954 233.561 340.105 219.994C339.255 206.426 337.903 194.037 334.512 190.306C332.32 187.89 329.2 180.077 327.271 174.868C326.224 172.024 325.527 169.95 325.527 169.95L289.929 171.982L289.639 174.868L285.859 212.698C285.859 212.698 285.352 254.429 283.824 263.928C282.297 273.427 284.83 274.798 284.83 274.798Z" fill="#444053"/>
<g opacity="0.1">
<path opacity="0.1" d="M325.679 272.24C327.525 269.358 338.393 269.525 338.393 269.525C338.393 269.525 338.056 233.561 337.207 219.994C336.358 206.426 335.006 194.037 331.614 190.306C329.413 187.881 326.302 180.077 324.373 174.868C323.492 172.476 322.86 170.634 322.684 170.107L325.453 169.95C325.453 169.95 326.15 172.024 327.202 174.868C329.131 180.077 332.246 187.89 334.438 190.306C337.83 194.037 339.186 206.422 340.031 219.994C340.875 233.566 341.221 269.525 341.221 269.525C341.221 269.525 330.372 269.358 328.503 272.24C326.911 274.701 299.468 274.817 291.503 274.794C301.725 274.77 324.24 274.466 325.679 272.24Z" fill="black"/>
<path opacity="0.1" d="M285.163 269.358C285.85 268.975 286.192 270.037 286.362 271.326C285.746 272.443 285.211 273.604 284.761 274.798C284.761 274.798 283.778 274.267 283.377 271.566C283.94 270.601 284.563 269.691 285.163 269.358Z" fill="black"/>
</g>
<path d="M295.832 82.9363C293.367 86.2981 295.859 91.0776 293.215 94.347C292.343 95.4276 291 96.1941 290.091 97.2562C288.407 99.2234 288.471 101.897 289.297 104.206C290.123 106.515 291.605 108.621 292.657 110.874C293.118 111.849 293.46 112.943 292.998 113.913C292.675 114.587 292.006 115.1 291.485 115.681C289.786 117.579 289.74 120.216 290.654 122.451C291.568 124.686 293.312 126.607 295.033 128.501C295.712 129.244 296.57 130.066 297.701 130.043C298.295 129.998 298.87 129.809 299.376 129.493C303.291 127.492 306.284 124.057 307.731 119.903C309.179 115.75 308.969 111.197 307.147 107.194C305.716 103.763 303.331 100.475 303.307 96.8499C303.307 93.973 304.784 91.2253 305.047 88.3623C305.366 84.8804 303.307 79.3529 299.108 77.8336C299.385 80.0687 297.082 81.2093 295.832 82.9363Z" fill="#585268"/>
<path opacity="0.1" d="M295.832 82.9363C293.367 86.2981 295.859 91.0776 293.215 94.347C292.343 95.4276 291 96.1941 290.091 97.2562C288.407 99.2234 288.471 101.897 289.297 104.206C290.123 106.515 291.605 108.621 292.657 110.874C293.118 111.849 293.46 112.943 292.998 113.913C292.675 114.587 292.006 115.1 291.485 115.681C289.786 117.579 289.74 120.216 290.654 122.451C291.568 124.686 293.312 126.607 295.033 128.501C295.712 129.244 296.57 130.066 297.701 130.043C298.295 129.998 298.87 129.809 299.376 129.493C303.291 127.492 306.284 124.057 307.731 119.903C309.179 115.75 308.969 111.197 307.147 107.194C305.716 103.763 303.331 100.475 303.307 96.8499C303.307 93.973 304.784 91.2253 305.047 88.3623C305.366 84.8804 303.307 79.3529 299.108 77.8336C299.385 80.0687 297.082 81.2093 295.832 82.9363Z" fill="black"/>
<path opacity="0.1" d="M323.16 205.221C318.227 205.48 313.584 207.604 309.265 210.005C304.946 212.407 300.765 215.127 296.118 216.83" fill="black"/>
<path opacity="0.1" d="M320.096 216.854C315.216 217.319 310.668 219.533 307.29 223.088C306.09 224.358 305.056 225.78 303.806 226.999C301.892 228.868 299.526 230.21 296.939 230.892" fill="black"/>
<path opacity="0.1" d="M321.106 225.706C317.171 226.799 313.609 228.948 310.806 231.922C310.049 232.739 309.362 233.612 308.605 234.429C304.521 238.816 298.753 241.143 293.183 243.346" fill="black"/>
<path d="M320.686 102.941C320.795 106.885 321.134 110.82 321.701 114.726C322.163 117.496 322.809 119.99 323.736 121.094C326.45 124.326 310.515 128.644 310.515 128.644L301.106 121.348C301.106 121.348 308.563 114.476 305.089 107.776C301.614 101.075 320.686 102.941 320.686 102.941Z" fill="#CC818C"/>
<path opacity="0.1" d="M289.63 174.868H327.262C326.215 172.024 325.518 169.95 325.518 169.95L289.92 171.982L289.63 174.868Z" fill="black"/>
<path d="M287.207 174.189H327.442C326.311 170.14 327.442 166.394 329.053 163.513C330.182 161.494 331.601 159.651 333.266 158.045L333.543 157.791L347.59 154.679L348.347 154.513C348.347 154.513 348.462 128.953 339.417 125.444C330.372 121.934 324.95 117.191 324.95 117.191L312.523 121.033L303.367 116.416C300.428 119.579 292.629 118.337 292.629 118.337C279.86 119.805 279.86 129.419 279.86 129.419C279.86 129.419 287.318 146.833 287.885 146.833C288.453 146.833 287.207 174.189 287.207 174.189Z" fill="#EF6C35"/>
<path opacity="0.1" d="M301.097 157.939C301.097 157.939 292.892 156.12 290.1 152.938Z" fill="black"/>
<path opacity="0.1" d="M342.467 148.403L332.952 156.207C333.021 156.829 333.126 157.445 333.266 158.055L333.543 157.801L347.59 154.688L342.467 148.403Z" fill="black"/>
<path opacity="0.1" d="M316.704 171.474C316.704 171.474 318.785 172.647 321.974 174.189H327.442C326.311 170.14 327.442 166.394 329.052 163.513L319.412 160.391C322.693 163.444 316.704 171.474 316.704 171.474Z" fill="black"/>
<path d="M285.509 126.353L279.86 129.406L274.323 143.43C274.323 143.43 268.559 158.807 269.122 162.88C269.122 162.88 267.092 172.495 270.705 174.189L280.119 178.456C280.285 178.53 280.47 178.55 280.648 178.513C280.826 178.477 280.989 178.386 281.113 178.253C281.237 178.12 281.317 177.952 281.342 177.771C281.366 177.591 281.334 177.408 281.249 177.246C279.906 174.702 278.43 170.721 280.788 168.533L278.074 162.88L287.881 146.819L291.157 141.278L285.509 126.353Z" fill="#EF6C35"/>
<path opacity="0.1" d="M298.074 154.73C298.564 156.725 300.216 159.809 305.684 160.959L311.683 165.877L318.065 168.773L320.668 169.95L321.771 161.975L319.265 160.59L316.344 158.992C316.344 158.992 309.754 147.046 299.32 152.065C298.835 152.295 298.446 152.687 298.218 153.173C297.991 153.66 297.94 154.21 298.074 154.73Z" fill="black"/>
<path d="M298.416 154.051C298.905 156.05 300.552 159.131 306.021 160.28L312.02 165.198L318.407 168.094L321.005 169.271L322.107 161.296L319.602 159.911L316.704 158.327C316.704 158.327 310.109 146.381 299.676 151.423C299.196 151.65 298.809 152.035 298.579 152.513C298.35 152.992 298.292 153.535 298.416 154.051V154.051Z" fill="#CC818C"/>
<path opacity="0.1" d="M310.174 113.285C318.225 113.285 324.752 106.754 324.752 98.6971C324.752 90.6405 318.225 84.1093 310.174 84.1093C302.123 84.1093 295.596 90.6405 295.596 98.6971C295.596 106.754 302.123 113.285 310.174 113.285Z" fill="black"/>
<path d="M310.174 112.948C318.225 112.948 324.752 106.416 324.752 98.3599C324.752 90.3033 318.225 83.7722 310.174 83.7722C302.123 83.7722 295.596 90.3033 295.596 98.3599C295.596 106.416 302.123 112.948 310.174 112.948Z" fill="#CC818C"/>
<path opacity="0.1" d="M319.205 129.53L314.821 121.006C314.821 121.006 321.235 118.411 321.701 115.404C322.168 112.398 327.848 118.928 326.621 121.094C325.393 123.259 319.205 129.53 319.205 129.53Z" fill="black"/>
<path d="M319.205 128.852L314.821 120.327C314.821 120.327 321.235 117.732 321.701 114.726C322.168 111.719 327.848 118.254 326.621 120.415C325.393 122.576 319.205 128.852 319.205 128.852Z" fill="#EF6C35"/>
<path d="M283.326 150.874L307.548 183.462C307.548 183.462 298.619 188.325 286.321 179.62L281.009 173.284L265.846 147.706L283.326 150.874Z" fill="#F6F8FB"/>
<path d="M278.559 168.593L280.765 168.533C280.765 168.533 294.24 155.446 297.548 162.068C300.857 168.69 289.154 174.877 289.154 174.877L285.596 176.798L280.959 178.184L277.991 174.199L278.559 168.593Z" fill="#CC818C"/>
<path opacity="0.1" d="M281.812 175.663C282.015 176.415 282.209 177.246 281.868 177.944C281.786 178.13 281.645 178.285 281.466 178.382C281.319 178.439 281.161 178.461 281.005 178.447C279.837 178.348 278.751 177.81 277.964 176.942C277.19 176.076 276.528 175.118 275.993 174.088C275.393 173.04 274.77 171.881 274.983 170.689C275.223 169.391 276.367 168.491 277.488 167.761C279.722 166.284 279.796 168.006 280.285 169.909C280.774 171.811 281.3 173.742 281.812 175.663Z" fill="black"/>
<path d="M281.476 175.663C281.674 176.415 281.872 177.246 281.531 177.944C281.449 178.13 281.308 178.285 281.129 178.382C280.982 178.439 280.825 178.461 280.668 178.447C279.5 178.35 278.413 177.812 277.627 176.942C276.851 176.078 276.187 175.119 275.652 174.088C275.052 173.04 274.429 171.881 274.646 170.689C274.881 169.391 276.03 168.491 277.147 167.761C279.385 166.284 279.454 168.006 279.948 169.909C280.442 171.811 280.959 173.742 281.476 175.663Z" fill="#EF6C35"/>
<path opacity="0.1" d="M287.885 146.82L289.011 144.912L288.028 148.454L287.885 146.82Z" fill="black"/>
<path opacity="0.1" d="M318.425 168.094L321.023 169.271L322.126 161.296L319.62 159.911C321.351 161.897 319.837 165.568 318.425 168.094Z" fill="black"/>
<path opacity="0.1" d="M328.854 158.835C328.854 158.835 320.465 159.348 316.902 157.057Z" fill="black"/>
<g opacity="0.1">
<path opacity="0.1" d="M327.811 164.192C328.94 162.171 330.36 160.327 332.024 158.72C332.424 158.469 332.838 158.244 333.266 158.045L346.344 155.358L347.1 155.192C347.1 155.192 347.216 129.632 338.176 126.122C333.105 124.193 328.351 121.514 324.073 118.175L325.065 117.87C325.065 117.87 330.488 122.617 339.532 126.122C348.577 129.627 348.457 155.192 348.457 155.192H347.1L333.718 157.754C333.718 157.754 333.141 158.313 332.966 158.475C331.287 160.157 329.848 162.062 328.688 164.136C326.917 167.426 326.514 171.283 327.567 174.868H326.182C325.065 170.818 326.219 167.073 327.811 164.192Z" fill="black"/>
<path opacity="0.1" d="M292.094 119.076C292.311 119.043 292.518 119.011 292.744 118.988C293.662 119.118 294.587 119.194 295.513 119.214C294.372 119.246 293.229 119.199 292.094 119.076V119.076Z" fill="black"/>
<path opacity="0.1" d="M311.277 121.712L302.998 117.519C303.162 117.384 303.317 117.238 303.46 117.081L312.098 121.454L311.277 121.712Z" fill="black"/>
</g>
<path d="M342.795 147.706L348.333 154.494L349.463 172.929C349.463 172.929 350.931 182.312 340.197 180.05C329.463 177.787 317.041 170.795 317.041 170.795C317.041 170.795 323.04 162.765 319.754 159.713L335.125 164.691C335.125 164.691 337.723 164.123 335.688 161.864C333.653 159.606 333.293 155.529 333.293 155.529L342.795 147.706Z" fill="#EF6C35"/>
<path opacity="0.1" d="M345.296 167.179L348.346 170.684C347.562 170.443 346.86 169.987 346.321 169.368C345.782 168.748 345.427 167.99 345.296 167.179V167.179Z" fill="black"/>
<path opacity="0.1" d="M340.095 166.611L344.844 172.716L342.472 173.284L340.095 166.611Z" fill="black"/>
<path opacity="0.1" d="M292.763 91.6641C292.241 90.3849 292.643 88.8934 293.27 87.6881C293.898 86.4828 294.761 85.3422 295.232 84.0446C295.929 82.1144 295.716 79.9301 296.478 78.0414C297.821 74.6935 301.637 73.1973 305.056 72.0383C306.067 71.7011 307.142 71.364 308.176 71.6134C309.56 71.9413 310.46 73.1973 311.591 74.0424C316.233 77.5058 323.783 73.6914 328.273 77.358C329.989 78.7434 330.825 81.0107 331.083 83.2134C331.341 85.4161 331.083 87.6512 331.055 89.8723C330.981 93.7606 331.711 98.0136 334.618 100.59C335.495 101.366 336.528 101.948 337.387 102.751C338.245 103.555 338.919 104.677 338.771 105.841C338.657 106.375 338.503 106.9 338.31 107.411C337.733 109.438 338.596 111.567 339.648 113.414C342.786 118.849 348.319 123.329 354.59 123.453C354.17 126.621 350.898 128.459 347.968 129.757C344.276 131.414 340.345 133.04 336.279 132.832C332.214 132.624 327.973 130.02 327.262 126.012C327.017 124.626 327.05 122.959 325.878 122.239C325.158 121.8 324.226 121.911 323.45 121.583C322.329 121.121 321.775 119.861 321.406 118.702C320.65 116.31 320.244 113.821 320.202 111.313C320.151 108.339 320.543 105.093 318.859 102.645C317.299 100.378 314.53 99.2281 312.73 97.1454C311.069 95.2152 309.265 92.8878 306.542 92.5276C302.777 91.9965 294.987 97.1177 292.763 91.6641Z" fill="black"/>
<path d="M292.763 90.9852C292.241 89.7061 292.643 88.2145 293.27 87.0093C293.898 85.804 294.761 84.6634 295.232 83.3658C295.929 81.4355 295.716 79.2513 296.478 77.3626C297.821 74.0101 301.637 72.5139 305.056 71.3594C306.067 71.0223 307.142 70.6852 308.176 70.9346C309.56 71.2624 310.46 72.5185 311.591 73.3636C316.233 76.8269 323.783 73.0126 328.273 76.6792C329.989 78.0645 330.825 80.3319 331.083 82.5392C331.341 84.7465 331.083 86.9723 331.055 89.1935C330.981 93.0817 331.711 97.3348 334.618 99.9115C335.495 100.687 336.528 101.269 337.387 102.073C338.245 102.876 338.919 103.998 338.771 105.162C338.657 105.696 338.503 106.221 338.309 106.732C337.733 108.759 338.596 110.888 339.648 112.735C342.795 118.152 348.305 122.645 354.576 122.77C354.156 125.938 350.884 127.776 347.954 129.078C344.262 130.731 340.331 132.356 336.265 132.149C332.2 131.941 327.959 129.336 327.248 125.328C327.004 123.943 327.036 122.276 325.864 121.555C325.144 121.117 324.212 121.227 323.436 120.9C322.315 120.438 321.761 119.177 321.392 118.018C320.635 115.627 320.23 113.138 320.188 110.63C320.137 107.656 320.529 104.409 318.845 101.962C317.285 99.6945 314.516 98.5446 312.717 96.462C311.055 94.5317 309.251 92.2043 306.528 91.8441C302.777 91.3177 294.987 96.4481 292.763 90.9852Z" fill="#585268"/>
<path opacity="0.1" d="M303.109 128.473L311.466 121.685C311.466 121.685 305.744 118.581 305.061 115.935C304.378 113.289 299.8 117.191 300.266 119.565C300.732 121.939 303.109 128.473 303.109 128.473Z" fill="black"/>
<path d="M303.437 127.452L311.794 120.669C311.794 120.669 306.072 117.565 305.416 114.919C304.761 112.273 300.156 116.175 300.622 118.549C301.088 120.923 303.437 127.452 303.437 127.452Z" fill="#EF6C35"/>
<path opacity="0.1" d="M312.122 127.014C312.489 127.014 312.786 126.716 312.786 126.349C312.786 125.981 312.489 125.684 312.122 125.684C311.755 125.684 311.457 125.981 311.457 126.349C311.457 126.716 311.755 127.014 312.122 127.014Z" fill="black"/>
<path opacity="0.1" d="M312.122 130.708C312.489 130.708 312.786 130.41 312.786 130.043C312.786 129.676 312.489 129.378 312.122 129.378C311.755 129.378 311.457 129.676 311.457 130.043C311.457 130.41 311.755 130.708 312.122 130.708Z" fill="black"/>
<path opacity="0.1" d="M312.122 134.398C312.489 134.398 312.786 134.1 312.786 133.733C312.786 133.365 312.489 133.068 312.122 133.068C311.755 133.068 311.457 133.365 311.457 133.733C311.457 134.1 311.755 134.398 312.122 134.398Z" fill="black"/>
<g opacity="0.1">
<path opacity="0.1" d="M296.136 81.5556C296.796 79.7407 296.653 77.7043 297.271 75.8756C296.985 76.2799 296.748 76.7171 296.565 77.1778C295.799 79.085 296.016 81.2692 295.315 83.181L295.269 83.2919C295.61 82.741 295.901 82.1598 296.136 81.5556V81.5556Z" fill="black"/>
<path opacity="0.1" d="M348.859 127.268C345.167 128.921 341.235 130.546 337.17 130.338C333.104 130.131 328.863 127.526 328.153 123.522C327.908 122.137 327.94 120.465 326.768 119.745C326.048 119.306 325.116 119.417 324.341 119.089C323.22 118.628 322.666 117.367 322.297 116.208C321.54 113.816 321.134 111.327 321.092 108.819C321.041 105.85 321.438 102.604 319.754 100.152C318.19 97.8842 315.421 96.739 313.621 94.6518C311.96 92.7261 310.155 90.3941 307.433 90.0339C303.7 89.526 295.896 94.6517 293.69 89.1935C293.336 88.1621 293.387 87.0345 293.833 86.0395C293.672 86.3119 293.515 86.5844 293.372 86.8615C292.744 88.0898 292.348 89.5629 292.869 90.842C295.089 96.2911 302.878 91.1699 306.611 91.6825C309.334 92.0519 311.138 94.3839 312.8 96.3003C314.599 98.3876 317.368 99.5328 318.928 101.805C320.617 104.252 320.22 107.499 320.271 110.468C320.313 112.976 320.718 115.465 321.475 117.856C321.844 119.02 322.398 120.267 323.52 120.738C324.295 121.066 325.227 120.96 325.947 121.394C327.137 122.114 327.105 123.8 327.331 125.171C328.051 129.175 332.287 131.779 336.348 131.987C340.409 132.195 344.322 130.574 348.037 128.916C350.714 127.725 353.695 126.076 354.498 123.375C353.215 125.129 350.944 126.339 348.859 127.268Z" fill="black"/>
</g>
<path opacity="0.1" d="M414.036 129.784C413.236 132.358 412.771 135.025 412.651 137.718C412.294 138.143 411.914 138.549 411.512 138.932C409.49 140.864 406.985 142.212 404.26 142.834C401.535 143.456 398.692 143.328 396.034 142.465C395.959 140.206 395.43 137.985 394.479 135.935L414.036 129.784Z" fill="black"/>
<path opacity="0.1" d="M459.58 236C459.58 236 459.432 241.015 460.341 242.987C461.25 244.959 464.591 255.917 464.591 255.917H457C457 255.917 461.098 251.511 460.798 249.382C460.498 247.254 459.58 236 459.58 236Z" fill="black"/>
<path opacity="0.1" d="M473.441 242.158L472.707 242.569L468 231.948L472.402 228H472.628C472.559 228.526 471.332 237.656 473.441 242.158Z" fill="black"/>
<g opacity="0.1">
<path opacity="0.1" d="M420.543 116.374V116.3C420.76 115.164 421.087 113.991 421.004 112.851C420.907 113.783 420.753 114.708 420.543 115.621C420.486 115.869 420.486 116.126 420.543 116.374V116.374Z" fill="black"/>
<path opacity="0.1" d="M411.687 130.588C411.929 131.135 412.056 131.726 412.061 132.324C412.129 131.499 412.001 130.67 411.687 129.904C411.263 128.981 410.261 128.284 409.283 128.519C407.982 128.824 407.437 130.514 406.15 130.92C405.079 131.262 403.907 130.5 403.381 129.498C402.855 128.496 402.855 127.318 402.855 126.192C402.855 124.922 402.855 123.656 402.855 122.387C402.855 121.001 402.809 119.514 401.959 118.429C400.898 117.076 398.415 116.49 396.754 116.54C395.648 116.554 394.588 116.983 393.782 117.741C392.892 118.498 391.867 119.052 390.654 118.854C390.15 118.777 389.678 118.559 389.293 118.226C388.908 117.893 388.624 117.457 388.475 116.97C388.351 116.48 388.383 115.954 388.24 115.469C387.885 114.278 386.611 113.654 385.757 112.749C384.957 111.861 384.503 110.713 384.479 109.517C384.416 110.218 384.497 110.926 384.717 111.595C384.937 112.264 385.291 112.882 385.757 113.409C386.611 114.333 387.885 114.938 388.24 116.129C388.383 116.591 388.351 117.141 388.475 117.63C388.624 118.118 388.908 118.553 389.293 118.886C389.678 119.22 390.15 119.437 390.654 119.514C391.867 119.713 392.892 119.159 393.782 118.401C394.588 117.643 395.648 117.215 396.754 117.201C398.415 117.15 400.907 117.736 401.959 119.089C402.809 120.175 402.85 121.666 402.855 123.047C402.855 124.317 402.855 125.582 402.855 126.852C402.855 127.979 402.855 129.161 403.381 130.154C403.907 131.147 405.065 131.922 406.15 131.581C407.423 131.174 407.995 129.484 409.283 129.179C410.261 128.967 411.263 129.697 411.687 130.588Z" fill="black"/>
<path opacity="0.1" d="M424.16 126.409C423.882 127.188 423.442 127.9 422.868 128.496L417.857 134.522C415.748 137.057 413.519 139.994 413.704 143.231C413.856 140.262 415.923 137.561 417.857 135.206L422.868 129.179C423.442 128.583 423.882 127.872 424.16 127.092C424.286 126.546 424.331 125.984 424.294 125.425C424.287 125.757 424.242 126.087 424.16 126.409V126.409Z" fill="black"/>
<path opacity="0.1" d="M411.092 142.215C411.01 141.951 410.959 141.679 410.94 141.403C410.898 141.907 410.949 142.414 411.092 142.899C411.433 143.998 412.684 144.908 413.741 144.437C413.711 144.216 413.692 143.994 413.685 143.772C412.633 144.192 411.415 143.296 411.092 142.215Z" fill="black"/>
</g>
<path opacity="0.1" d="M423.671 286.809C423.671 286.809 420.169 288.998 420.058 290.25C419.947 291.501 421.867 289.326 421.867 289.326L423.671 286.809Z" fill="black"/>
<path opacity="0.1" d="M425.056 303.6C423.838 304.614 422.324 305.205 420.741 305.285C418.12 305.401 418.341 308.818 420.053 307.793C421.765 306.767 425.056 303.6 425.056 303.6Z" fill="black"/>
<path opacity="0.1" d="M425.72 305.793C425.72 305.793 424.041 314.054 422.675 312.461Z" fill="black"/>
<g opacity="0.05">
<path opacity="0.05" d="M146.077 220.908C144.979 220.816 143.88 220.728 142.777 220.691C140.313 220.599 136.552 220.691 133.986 218.802L134.882 218.645C137.447 220.682 141.342 220.594 143.894 220.691C144.997 220.728 146.091 220.816 147.194 220.908C147.554 220.94 147.923 220.959 148.296 220.968C147.556 220.988 146.815 220.968 146.077 220.908V220.908Z" fill="black"/>
<path opacity="0.05" d="M178.629 249.673C179.801 249.488 181.017 249.282 182.279 249.054L182.703 248.975C182.703 248.975 182.948 247.645 183.137 245.378C183.571 240.229 183.723 230.259 180.096 220.054L177.253 211.28C177.858 210.938 178.176 210.74 178.176 210.74L181.194 220.04C184.817 230.245 184.665 240.215 184.235 245.364C184.042 247.632 183.797 248.961 183.797 248.961L183.377 249.04C182.119 249.268 180.902 249.474 179.727 249.659C171.342 250.989 165.149 251.312 160.922 251.275C166.856 251.185 172.775 250.649 178.629 249.673V249.673Z" fill="black"/>
<path opacity="0.05" d="M152.21 248.975V249.026H151.61C151.837 249.011 152.037 248.994 152.21 248.975Z" fill="black"/>
</g>
<g opacity="0.05">
<path opacity="0.05" d="M170.475 156.614C166.566 169.484 177.959 170.994 177.959 170.994L187.115 195.547C187.858 199.731 178.375 211.917 178.375 211.917C177.715 213.478 176.067 214.665 174.268 215.542C175.319 214.901 176.165 213.972 176.704 212.864C176.704 212.864 186.183 200.682 185.44 196.498L176.284 171.941C176.284 171.941 164.895 170.43 168.799 157.561C170.105 153.261 172.03 151.303 173.977 150.602C172.634 151.682 171.402 153.552 170.475 156.614Z" fill="black"/>
</g>
<g opacity="0.1">
<path opacity="0.1" d="M170.668 168.306C171.204 168.969 171.824 169.557 172.514 170.056C173.807 170.996 175.297 171.628 176.871 171.904C176.871 171.904 176.871 171.904 176.871 171.927V172.388C175.446 172.087 174.101 171.49 172.92 170.638C172.043 169.995 171.281 169.206 170.668 168.306V168.306Z" fill="black"/>
<path opacity="0.1" d="M177.77 150.417L177.849 150.44L177.77 150.417Z" fill="black"/>
<path opacity="0.1" d="M176.114 150.343L171.591 148.981H171.568C171.301 149.276 164.762 156.531 159.847 162.405C155.454 167.655 147.752 167.244 145.897 167.059C145.56 167.023 145.219 166.995 144.882 166.972C139.838 166.648 137.854 166.048 137.189 164.774C138.135 165.697 140.216 166.159 144.462 166.418C144.803 166.418 145.14 166.468 145.477 166.501C147.323 166.685 155.034 167.096 159.427 161.851C164.342 155.972 170.885 148.717 171.153 148.422L177.733 150.417C177.204 150.285 176.653 150.26 176.114 150.343V150.343Z" fill="black"/>
</g>
<path opacity="0.9" d="M88.8782 332.766C95.7416 332.766 101.305 331.825 101.305 330.665C101.305 329.504 95.7416 328.564 88.8782 328.564C82.0148 328.564 76.4509 329.504 76.4509 330.665C76.4509 331.825 82.0148 332.766 88.8782 332.766Z" fill="#EF6C35"/>
<path opacity="0.9" d="M39.9214 362.565C46.7848 362.565 52.3487 361.624 52.3487 360.464C52.3487 359.303 46.7848 358.363 39.9214 358.363C33.058 358.363 27.4941 359.303 27.4941 360.464C27.4941 361.624 33.058 362.565 39.9214 362.565Z" fill="#EF6C35"/>
<path d="M26.9819 336.945C37.2298 336.945 45.5374 335.539 45.5374 333.805C45.5374 332.071 37.2298 330.665 26.9819 330.665C16.734 330.665 8.42639 332.071 8.42639 333.805C8.42639 335.539 16.734 336.945 26.9819 336.945Z" fill="#EF6C35"/>
<path d="M19.3078 328.67C18.4594 327.981 17.8412 327.05 17.5357 326.001C17.3096 324.939 17.7619 323.669 18.7725 323.281C19.9077 322.847 21.1213 323.632 22.0396 324.426C22.958 325.22 24.0147 326.13 25.2191 325.964C24.5997 325.402 24.1364 324.688 23.8744 323.894C23.6124 323.099 23.5605 322.25 23.724 321.429C23.7737 321.089 23.9176 320.769 24.1393 320.506C24.7669 319.831 25.9113 320.122 26.6681 320.653C29.0631 322.343 29.7369 325.604 29.7461 328.541C29.9907 327.478 29.7876 326.379 29.7923 325.308C29.7969 324.237 30.0968 322.999 31.0105 322.436C31.5749 322.123 32.2113 321.964 32.8564 321.974C33.9362 321.937 35.136 322.043 35.8744 322.833C36.7973 323.812 36.5527 325.46 35.7544 326.527C34.9561 327.594 33.747 328.282 32.6349 329.03C31.7391 329.561 30.9754 330.289 30.4014 331.159C30.3341 331.28 30.2785 331.406 30.2353 331.538H23.4933C21.9742 330.777 20.566 329.812 19.3078 328.67V328.67Z" fill="#EF6C35"/>
<path opacity="0.9" d="M475.231 350.341C482.094 350.341 487.658 349.401 487.658 348.24C487.658 347.08 482.094 346.139 475.231 346.139C468.368 346.139 462.804 347.08 462.804 348.24C462.804 349.401 468.368 350.341 475.231 350.341Z" fill="#EF6C35"/>
<path d="M466.888 338.474C466.888 338.474 473.976 338.257 476.117 336.733C478.258 335.209 487.017 333.394 487.547 335.837C488.078 338.28 498.203 347.977 490.196 348.042C482.19 348.106 471.604 346.795 469.472 345.493C467.34 344.19 466.888 338.474 466.888 338.474Z" fill="#A8A8A8"/>
<path opacity="0.2" d="M490.335 347.197C482.333 347.261 471.742 345.95 469.61 344.648C467.986 343.659 467.34 340.108 467.123 338.469H466.888C466.888 338.469 467.349 344.19 469.467 345.488C471.585 346.786 482.19 348.102 490.192 348.037C492.499 348.037 493.302 347.197 493.256 345.978C492.937 346.735 492.056 347.197 490.335 347.197Z" fill="black"/>
</g>
<defs>
<linearGradient id="paint0_linear_118_493" x1="222.256" y1="328.01" x2="222.256" y2="55.0539" gradientUnits="userSpaceOnUse">
<stop stop-color="#808080" stop-opacity="0.25"/>
<stop offset="0.54" stop-color="#808080" stop-opacity="0.12"/>
<stop offset="1" stop-color="#808080" stop-opacity="0.1"/>
</linearGradient>
<linearGradient id="paint1_linear_118_493" x1="63560.3" y1="220621" x2="63560.3" y2="48335.7" gradientUnits="userSpaceOnUse">
<stop stop-color="#808080" stop-opacity="0.25"/>
<stop offset="0.54" stop-color="#808080" stop-opacity="0.12"/>
<stop offset="1" stop-color="#808080" stop-opacity="0.1"/>
</linearGradient>
<clipPath id="clip0_118_493">
<rect width="525" height="397" fill="white"/>
</clipPath>
</defs>
</svg>
