<svg width="64" height="64" viewBox="0 0 64 64" fill="none" xmlns="http://www.w3.org/2000/svg">
<g clip-path="url(#clip0_14_112)">
<path d="M40.8278 16.6329C42.5509 16.6329 43.9528 15.2311 43.9528 13.5079C43.9528 11.7848 42.5509 10.3828 40.8278 10.3828C39.1046 10.3828 37.7028 11.7848 37.7028 13.5079C37.7028 14.2117 37.9368 14.8617 38.3309 15.3847L33.1964 22.5598C32.89 22.4592 32.5631 22.4039 32.2234 22.4039C31.4023 22.4039 30.6545 22.7228 30.0963 23.2426L26.6739 21.3006C26.7195 21.0886 26.744 20.8688 26.744 20.6434C26.744 18.9203 25.3421 17.5184 23.619 17.5184C21.8959 17.5184 20.494 18.9203 20.494 20.6434C20.494 20.8688 20.5185 21.0886 20.5641 21.3006L17.1418 23.2426C16.5835 22.7228 15.8358 22.4041 15.0146 22.4041C13.2915 22.4041 11.8896 23.8061 11.8896 25.5292C11.8896 27.2523 13.2915 28.6543 15.0146 28.6543C16.7378 28.6543 18.1396 27.2523 18.1396 25.5292C18.1396 25.3038 18.1151 25.0841 18.0695 24.8721L21.4919 22.9301C22.0501 23.4498 22.7979 23.7687 23.619 23.7687C24.4401 23.7687 25.1878 23.4498 25.7461 22.9302L29.1685 24.8722C29.1229 25.0842 29.0984 25.3039 29.0984 25.5293C29.0984 27.2524 30.5003 28.6544 32.2234 28.6544C33.9466 28.6544 35.3485 27.2524 35.3485 25.5293C35.3485 24.8254 35.1144 24.1753 34.7203 23.6523L39.8548 16.4772C40.161 16.5777 40.488 16.6329 40.8278 16.6329ZM40.8278 12.2578C41.517 12.2578 42.0778 12.8186 42.0778 13.5079C42.0778 14.1972 41.517 14.7579 40.8278 14.7579C40.1385 14.7579 39.5778 14.1972 39.5778 13.5079C39.5776 12.8186 40.1384 12.2578 40.8278 12.2578ZM15.0143 26.7791C14.325 26.7791 13.7643 26.2183 13.7643 25.5289C13.7643 24.8396 14.325 24.2788 15.0143 24.2788C15.7035 24.2788 16.2643 24.8396 16.2643 25.5289C16.2643 26.2183 15.7035 26.7791 15.0143 26.7791ZM23.6188 21.8934C22.9295 21.8934 22.3688 21.3327 22.3688 20.6433C22.3688 19.9541 22.9295 19.3933 23.6188 19.3933C24.308 19.3933 24.8688 19.9541 24.8688 20.6433C24.8689 21.3327 24.308 21.8934 23.6188 21.8934ZM32.2233 26.7791C31.534 26.7791 30.9733 26.2183 30.9733 25.5289C30.9733 24.8396 31.534 24.2788 32.2233 24.2788C32.9126 24.2788 33.4734 24.8396 33.4734 25.5289C33.4734 26.2183 32.9125 26.7791 32.2233 26.7791Z" fill="#EF6C35"/>
<path d="M52.3495 47.1208H45.7887H10.0535H2.65188C2.2235 47.1208 1.875 46.7723 1.875 46.3439V7.66652C1.875 7.23815 2.2235 6.88965 2.65188 6.88965H7.07137C7.58912 6.88965 8.00887 6.47002 8.00887 5.95215C8.00887 5.43427 7.58912 5.01465 7.07137 5.01465H2.65188C1.18963 5.01465 0 6.20427 0 7.66652V46.3439C0 47.8061 1.18963 48.9958 2.65188 48.9958H9.116V51.059C9.116 52.2344 10.0723 53.1906 11.2476 53.1906H20.6319L16.2144 61.8154C15.9784 62.2763 16.1605 62.8411 16.6214 63.0773C16.7581 63.1474 16.9041 63.1805 17.048 63.1805C17.3886 63.1805 17.7173 62.9943 17.8831 62.6701L22.7385 53.1906H33.1037L37.9591 62.6701C38.1251 62.9943 38.4536 63.1805 38.7943 63.1805C38.9381 63.1805 39.0841 63.1471 39.2209 63.0773C39.6817 62.8411 39.864 62.2763 39.6279 61.8154L35.2104 53.1906H44.5946C45.77 53.1906 46.7262 52.2345 46.7262 51.059V48.9958H52.3495C52.8672 48.9958 53.287 48.5761 53.287 48.0583C53.287 47.5404 52.8672 47.1208 52.3495 47.1208ZM44.8512 51.059C44.8512 51.2005 44.7361 51.3156 44.5946 51.3156H11.2476C11.1061 51.3156 10.991 51.2005 10.991 51.059V48.9958H44.8512V51.059Z" fill="#161C2E"/>
<path d="M10.8213 6.88957H23.6553H32.1867H53.1902C53.6185 6.88957 53.967 7.23807 53.967 7.66645V16.5803C53.967 17.0982 54.3868 17.5178 54.9045 17.5178C55.4223 17.5178 55.842 17.0982 55.842 16.5803V7.66645C55.842 6.2042 54.6524 5.01457 53.1902 5.01457H33.1243V3.17182C33.1243 1.87495 32.0692 0.819824 30.7722 0.819824H25.0699C23.773 0.819824 22.7178 1.87495 22.7178 3.17182V5.01457H10.8213C10.3035 5.01457 9.88379 5.4342 9.88379 5.95207C9.88379 6.46995 10.3035 6.88957 10.8213 6.88957ZM24.5928 3.17182C24.5928 2.90882 24.8068 2.69482 25.0699 2.69482H30.7722C31.0352 2.69482 31.2493 2.90882 31.2493 3.17182V5.01457H24.5929V3.17182H24.5928Z" fill="#161C2E"/>
<path d="M13.1128 33.447C12.595 33.447 12.1753 33.8666 12.1753 34.3845V42.6685C12.1753 43.1864 12.595 43.606 13.1128 43.606H16.9162C17.4339 43.606 17.8537 43.1864 17.8537 42.6685V34.3845C17.8537 33.8666 17.4339 33.447 16.9162 33.447H13.1128ZM15.9787 41.7311H14.0503V35.3221H15.9787V41.7311V41.7311Z" fill="#EF6C35"/>
<path d="M21.717 28.656C21.1993 28.656 20.7795 29.0756 20.7795 29.5935V42.6686C20.7795 43.1865 21.1993 43.6061 21.717 43.6061H25.5204C26.0382 43.6061 26.4579 43.1865 26.4579 42.6686V29.5935C26.4579 29.0756 26.0382 28.656 25.5204 28.656H21.717ZM24.583 41.7311H22.6547V30.531H24.583V41.7311Z" fill="#EF6C35"/>
<path d="M30.3215 33.447C29.8038 33.447 29.384 33.8666 29.384 34.3845V42.6685C29.384 43.1864 29.8038 43.606 30.3215 43.606H34.1249C34.6427 43.606 35.0624 43.1864 35.0624 42.6685V34.3845C35.0624 33.8666 34.6427 33.447 34.1249 33.447H30.3215ZM33.1874 41.7311H31.259V35.3221H33.1874V41.7311Z" fill="#EF6C35"/>
<path d="M38.9263 38.979C38.4085 38.979 37.9888 39.3986 37.9888 39.9165V42.6686C37.9888 43.1865 38.4085 43.6061 38.9263 43.6061H42.7296C43.2474 43.6061 43.6671 43.1865 43.6671 42.6686C43.6671 42.1508 43.2474 41.7311 42.7296 41.7311H39.8638V39.9165C39.8638 39.3986 39.444 38.979 38.9263 38.979Z" fill="#EF6C35"/>
<path d="M63.5219 48.0024L58.1435 38.6867C59.5062 37.2343 60.4984 35.4597 61.0284 33.4817C61.8755 30.3203 61.4408 27.0182 59.8043 24.1837C56.426 18.332 48.9172 16.3204 43.0659 19.6985C37.2145 23.0767 35.2027 30.5855 38.5809 36.4369C40.2174 39.2714 42.8598 41.2989 46.0212 42.1462C47.0769 42.429 48.148 42.5689 49.2124 42.5689C50.1427 42.5689 51.0675 42.4619 51.972 42.2502L57.3493 51.5662C58.0084 52.7083 59.2087 53.3474 60.4414 53.3473C61.0455 53.3473 61.6575 53.1937 62.2174 52.8707C63.3169 52.236 64 51.0527 64 49.7824C64 49.16 63.8348 48.5447 63.5219 48.0024ZM46.5064 40.335C43.8288 39.6175 41.5907 37.9002 40.2045 35.4994C37.3433 30.5434 39.0474 24.1837 44.0033 21.3223C45.6337 20.381 47.4153 19.934 49.175 19.934C52.7644 19.934 56.2604 21.7957 58.1804 25.1212C59.5664 27.5219 59.9347 30.3187 59.2172 32.9964C58.4997 35.6742 56.7823 37.912 54.3815 39.2982C51.9809 40.6843 49.1842 41.0523 46.5064 40.335ZM61.2803 51.2467C60.4737 51.7124 59.4387 51.4352 58.9733 50.6289L53.7998 41.6659C54.3183 41.4543 54.826 41.2068 55.3193 40.922C55.8129 40.637 56.2804 40.3198 56.723 39.9763L61.898 48.9397C62.0465 49.1973 62.125 49.4888 62.125 49.7825C62.125 50.3848 61.8013 50.9459 61.2803 51.2467Z" fill="#161C2E"/>
<path d="M57.6928 32.9514C58.3547 30.8194 58.1971 28.5369 57.249 26.5244C57.0282 26.0559 56.4697 25.8552 56.0013 26.0758C55.5328 26.2966 55.3321 26.8551 55.5528 27.3234C56.3007 28.9109 56.4248 30.7121 55.9022 32.3953C55.3767 34.0878 54.2415 35.5082 52.7056 36.3949C51.0803 37.3334 49.1867 37.5824 47.3741 37.0968C45.5613 36.6111 44.0461 35.4484 43.1078 33.8232C41.1707 30.4681 42.3245 26.1626 45.6796 24.2254C48.1327 22.8093 51.1771 22.9986 53.436 24.7076C53.849 25.0201 54.4368 24.9387 54.7492 24.5257C55.0616 24.1128 54.9802 23.5248 54.5672 23.2124C51.7058 21.0473 47.8491 20.8077 44.742 22.6016C42.683 23.7903 41.2101 25.7098 40.5947 28.0063C39.9793 30.3028 40.2952 32.7016 41.484 34.7606C42.6727 36.8197 44.5922 38.2924 46.8887 38.9079C47.6556 39.1134 48.4338 39.2151 49.207 39.2151C50.7492 39.2151 52.2716 38.8106 53.643 38.0187C55.5888 36.8954 57.0271 35.0959 57.6928 32.9514Z" fill="#161C2E"/>
</g>
<defs>
<clipPath id="clip0_14_112">
<rect width="64" height="64" fill="white"/>
</clipPath>
</defs>
</svg>
