<svg width="64" height="64" viewBox="0 0 64 64" fill="none" xmlns="http://www.w3.org/2000/svg">
<g clip-path="url(#clip0_83_963)">
<path d="M57.6249 53.3753H54.8129L54.8139 51.2997C57.1096 49.2938 58.5624 46.3467 58.5624 43.0664V39.4697C59.2949 35.7849 58.9589 33.0524 57.5621 31.3487C56.6818 30.2747 55.5905 29.8653 54.8124 29.7122V25.5629C54.8124 25.0451 54.3927 24.6254 53.8749 24.6254C53.5191 24.6254 53.1546 24.6234 52.7836 24.6216C52.3958 24.6194 52.0006 24.6174 51.601 24.6174C47.0783 24.6174 42.0006 24.9036 38.9844 28.3202C36.8147 30.7778 36.0635 34.4073 36.6872 39.4158V43.0666C36.6872 46.3477 38.1407 49.2956 40.4375 51.3014V53.3756H37.625C35.0403 53.3756 32.9375 55.4783 32.9375 58.0631V63.0626C32.9375 63.5804 33.3571 64.0001 33.875 64.0001H37.625H43.875H61.3749C61.8927 64.0001 62.3124 63.5804 62.3124 63.0626V58.0677C62.3124 58.0659 62.3125 58.0646 62.3125 58.0628C62.3125 55.4781 60.2096 53.3753 57.6249 53.3753ZM40.3903 29.5609C42.8899 26.7293 47.4877 26.4922 51.6012 26.4922C51.9975 26.4922 52.3893 26.4943 52.7739 26.4963C52.8286 26.4966 52.8831 26.4968 52.9376 26.4972V30.5628C52.9376 30.8216 53.04 31.0692 53.2286 31.2464C53.4174 31.4237 53.6665 31.5154 53.9245 31.4989C54.0099 31.4939 55.2459 31.4806 56.1124 32.5373C56.7522 33.3179 57.0715 34.5157 57.0644 36.0686L56.6569 35.2538C56.4505 34.8407 55.9736 34.6393 55.5337 34.7798C55.478 34.7976 49.9233 36.5556 46.719 36.5556C43.6455 36.5556 40.8645 34.8892 40.8379 34.8731C40.4258 34.6208 39.8892 34.7238 39.5991 35.1104L38.3619 36.7602C38.2862 33.5903 38.9654 31.1748 40.3903 29.5609ZM38.5625 43.0663V39.6177L40.615 36.8811C41.771 37.4559 44.1155 38.4306 46.719 38.4306C49.4958 38.4306 53.6297 37.3028 55.3339 36.8003L56.6875 39.5077V43.0663C56.6875 48.0614 52.6221 52.1253 47.625 52.1253C42.6279 52.1253 38.5625 48.0614 38.5625 43.0663ZM52.9383 52.6203L52.9376 53.8108L50.0588 55.7306L48.5624 54.9831V53.9597C50.1395 53.8252 51.622 53.3547 52.9383 52.6203ZM46.6875 53.9598V54.9281L44.6599 55.7391L42.3128 53.8621V52.6209C43.6286 53.3551 45.1107 53.8253 46.6875 53.9598ZM42.9375 62.1251H38.5626V60.2501H42.9375V62.1251ZM60.4374 58.0628V62.1251H44.8125V59.3126C44.8125 58.7947 44.3929 58.3751 43.875 58.3751H37.6253C37.1074 58.3751 36.6878 58.7947 36.6878 59.3126V62.1251H34.8128V58.0628C34.8128 56.5121 36.0745 55.2503 37.6253 55.2503H41.0465L43.9155 57.5444C43.9238 57.5511 43.9331 57.5554 43.9415 57.5618C43.968 57.5814 43.9951 57.5997 44.0233 57.6164C44.0403 57.6266 44.0571 57.6364 44.0744 57.6453C44.1013 57.6589 44.1289 57.6707 44.1566 57.6817C44.1752 57.6891 44.1936 57.6971 44.2125 57.7032C44.2434 57.7132 44.275 57.7203 44.3069 57.7271C44.3227 57.7304 44.3383 57.7352 44.3541 57.7378C44.4025 57.7456 44.4515 57.7501 44.5011 57.7501C44.5339 57.7501 44.5665 57.7478 44.5995 57.7444C44.6052 57.7437 44.611 57.7426 44.6169 57.7418C44.6426 57.7387 44.6683 57.7344 44.694 57.7291C44.7045 57.7268 44.7149 57.7241 44.7254 57.7214C44.7455 57.7164 44.7656 57.7109 44.7856 57.7044C44.7986 57.7003 44.8116 57.6958 44.8246 57.6911C44.8326 57.6882 44.841 57.6859 44.849 57.6827L47.5822 56.5894L49.7074 57.6509C49.7217 57.6582 49.7366 57.6633 49.7511 57.6697C49.7681 57.6771 49.7848 57.6851 49.8019 57.6914C49.8254 57.7001 49.8489 57.7067 49.8725 57.7133C49.8839 57.7164 49.895 57.7207 49.9064 57.7233C49.9396 57.7313 49.9727 57.7372 50.0062 57.7416C50.0091 57.7418 50.0117 57.7426 50.0145 57.7431C50.0515 57.7474 50.0886 57.7499 50.1255 57.7499C50.1696 57.7499 50.2133 57.7467 50.2566 57.7406C50.2755 57.7378 50.2943 57.7326 50.3131 57.7287C50.337 57.7238 50.3611 57.7197 50.3845 57.7131C50.4035 57.7074 50.4223 57.6997 50.441 57.6931C50.4644 57.6847 50.4876 57.6767 50.5103 57.6667C50.5268 57.6591 50.5427 57.6499 50.559 57.6416C50.5834 57.6288 50.6076 57.6159 50.6309 57.6011C50.6359 57.5978 50.6414 57.5957 50.6464 57.5923L54.1587 55.2503H57.625C59.1747 55.2503 60.4357 56.5103 60.4375 58.0597C60.4375 58.0607 60.4374 58.0618 60.4374 58.0628Z" fill="#161C2E"/>
<path d="M26.3749 53.3753H22.3129L22.3135 52.2439C25.3196 50.2933 27.3124 46.9081 27.3124 43.0663V41.0003L28.5595 41.4456C28.662 41.4823 28.7686 41.5003 28.8748 41.5003C29.0656 41.5003 29.2548 41.4419 29.4149 41.3291C29.6641 41.1535 29.8124 40.8678 29.8124 40.5628C29.8124 34.9364 28.7291 30.7585 26.5926 28.1456C24.8375 25.999 22.4249 24.9106 19.4216 24.9106C15.921 24.9106 12.6405 26.4145 11.4749 27.0124L9.27787 25.9664C8.99887 25.8335 8.67237 25.8466 8.40525 26.0014C8.02925 26.219 4.75663 28.3706 5.43738 36.8476V43.0663C5.43738 46.9086 7.43062 50.294 10.4374 52.2446V53.3753H6.375C3.79025 53.3753 1.6875 55.478 1.6875 58.0628V63.0625C1.6875 63.5804 2.10725 64 2.625 64H30.1248C30.6425 64 31.0623 63.5804 31.0623 63.0625V58.0676C31.0623 58.0659 31.0625 58.0645 31.0625 58.0628C31.0624 55.478 28.9596 53.3753 26.3749 53.3753ZM9.02763 27.9239L11.097 28.9091C11.3746 29.0415 11.7001 29.0285 11.9669 28.8756C12.0034 28.8546 15.657 26.7856 19.4217 26.7856C24.7896 26.7856 27.6438 30.9693 27.916 39.2248L11.6903 33.4299C11.588 33.3934 11.4814 33.3754 11.375 33.3754C11.2309 33.3754 11.0873 33.4086 10.9558 33.4744L7.23088 35.3368C7.09425 30.64 8.39325 28.6229 9.02763 27.9239ZM7.3125 43.0663V37.392L11.4365 35.3301L25.4375 40.3305V43.0663C25.4375 48.0614 21.3721 52.1253 16.375 52.1253C11.3779 52.1253 7.3125 48.0614 7.3125 43.0663ZM20.438 53.2175L20.4374 54.3123V54.3125V54.3126C20.4374 56.5528 18.6149 58.3751 16.3749 58.3751C14.1349 58.3751 12.3124 56.5528 12.3124 54.3126V53.2178C13.5691 53.722 14.9401 54.0003 16.3749 54.0003C17.81 54.0003 19.1811 53.7219 20.438 53.2175ZM29.1873 58.0628V62.125H29.1871H3.5625V58.0628C3.5625 56.512 4.82413 55.2503 6.375 55.2503H10.5122C10.9632 58.0801 13.4201 60.2501 16.375 60.2501C19.3299 60.2501 21.7867 58.0801 22.2377 55.2503H26.375C27.9247 55.2503 29.1856 56.5103 29.1874 58.0596C29.1874 58.0606 29.1873 58.0618 29.1873 58.0628Z" fill="#161C2E"/>
<path d="M25.914 17.727C24.906 17.657 24.087 17.524 23.457 17.328C22.841 17.118 22.379 16.929 22.071 16.761L22.785 14.766C23.233 14.99 23.772 15.193 24.402 15.375C25.046 15.557 25.774 15.648 26.586 15.648C27.552 15.648 28.217 15.508 28.581 15.228C28.959 14.934 29.148 14.549 29.148 14.073C29.148 13.751 29.071 13.471 28.917 13.233C28.763 12.995 28.546 12.785 28.266 12.603C27.986 12.421 27.65 12.253 27.258 12.099C26.88 11.945 26.46 11.784 25.998 11.616C25.564 11.462 25.13 11.287 24.696 11.091C24.276 10.895 23.891 10.657 23.541 10.377C23.205 10.083 22.932 9.733 22.722 9.327C22.512 8.921 22.407 8.424 22.407 7.836C22.407 6.87 22.694 6.051 23.268 5.379C23.842 4.693 24.724 4.252 25.914 4.056V1.704H28.098V3.972C28.77 4.028 29.372 4.126 29.904 4.266C30.436 4.392 30.856 4.518 31.164 4.644L30.639 6.723C30.233 6.569 29.75 6.422 29.19 6.282C28.644 6.142 28.014 6.072 27.3 6.072C26.544 6.072 25.977 6.212 25.599 6.492C25.221 6.758 25.032 7.129 25.032 7.605C25.032 7.885 25.088 8.123 25.2 8.319C25.312 8.501 25.48 8.669 25.704 8.823C25.928 8.963 26.201 9.103 26.523 9.243C26.845 9.369 27.209 9.502 27.615 9.642C28.189 9.866 28.728 10.104 29.232 10.356C29.75 10.594 30.198 10.881 30.576 11.217C30.954 11.539 31.248 11.924 31.458 12.372C31.682 12.82 31.794 13.352 31.794 13.968C31.794 14.892 31.507 15.69 30.933 16.362C30.359 17.034 29.414 17.468 28.098 17.664V20.289H25.914V17.727Z" fill="#EF6C35"/>
<path d="M34.914 18.727C33.906 18.657 33.087 18.524 32.457 18.328C31.841 18.118 31.379 17.929 31.071 17.761L31.785 15.766C32.233 15.99 32.772 16.193 33.402 16.375C34.046 16.557 34.774 16.648 35.586 16.648C36.552 16.648 37.217 16.508 37.581 16.228C37.959 15.934 38.148 15.549 38.148 15.073C38.148 14.751 38.071 14.471 37.917 14.233C37.763 13.995 37.546 13.785 37.266 13.603C36.986 13.421 36.65 13.253 36.258 13.099C35.88 12.945 35.46 12.784 34.998 12.616C34.564 12.462 34.13 12.287 33.696 12.091C33.276 11.895 32.891 11.657 32.541 11.377C32.205 11.083 31.932 10.733 31.722 10.327C31.512 9.921 31.407 9.424 31.407 8.836C31.407 7.87 31.694 7.051 32.268 6.379C32.842 5.693 33.724 5.252 34.914 5.056V2.704H37.098V4.972C37.77 5.028 38.372 5.126 38.904 5.266C39.436 5.392 39.856 5.518 40.164 5.644L39.639 7.723C39.233 7.569 38.75 7.422 38.19 7.282C37.644 7.142 37.014 7.072 36.3 7.072C35.544 7.072 34.977 7.212 34.599 7.492C34.221 7.758 34.032 8.129 34.032 8.605C34.032 8.885 34.088 9.123 34.2 9.319C34.312 9.501 34.48 9.669 34.704 9.823C34.928 9.963 35.201 10.103 35.523 10.243C35.845 10.369 36.209 10.502 36.615 10.642C37.189 10.866 37.728 11.104 38.232 11.356C38.75 11.594 39.198 11.881 39.576 12.217C39.954 12.539 40.248 12.924 40.458 13.372C40.682 13.82 40.794 14.352 40.794 14.968C40.794 15.892 40.507 16.69 39.933 17.362C39.359 18.034 38.414 18.468 37.098 18.664V21.289H34.914V18.727Z" fill="#EF6C35"/>
</g>
<defs>
<clipPath id="clip0_83_963">
<rect width="64" height="64" fill="white"/>
</clipPath>
</defs>
</svg>
